<svg width="720" height="900" viewBox="0 0 720 900" fill="none" xmlns="http://www.w3.org/2000/svg">
<g clip-path="url(#clip0_88:29341)">
<rect width="720" height="900" fill="#FBFCFF"/>
<g opacity="0.25">
<line x1="711.251" y1="1118" x2="711.251" y2="-322" stroke="#B9C1E1"/>
<line x1="659.939" y1="1118" x2="659.939" y2="-322" stroke="#B9C1E1"/>
<line x1="608.626" y1="1118" x2="608.626" y2="-322" stroke="#B9C1E1"/>
<line x1="557.314" y1="1118" x2="557.314" y2="-322" stroke="#B9C1E1"/>
<line x1="506.002" y1="1118" x2="506.002" y2="-322" stroke="#B9C1E1"/>
<line x1="454.69" y1="1118" x2="454.69" y2="-322" stroke="#B9C1E1"/>
<line x1="403.377" y1="1118" x2="403.377" y2="-322" stroke="#B9C1E1"/>
<line x1="352.065" y1="1118" x2="352.065" y2="-322" stroke="#B9C1E1"/>
<line x1="300.753" y1="1118" x2="300.753" y2="-322" stroke="#B9C1E1"/>
<line x1="249.44" y1="1118" x2="249.441" y2="-322" stroke="#B9C1E1"/>
<line x1="198.128" y1="1118" x2="198.128" y2="-322" stroke="#B9C1E1"/>
<line x1="146.816" y1="1118" x2="146.816" y2="-322" stroke="#B9C1E1"/>
<line x1="95.5037" y1="1118" x2="95.5039" y2="-322" stroke="#B9C1E1"/>
<line x1="44.1915" y1="1118" x2="44.1917" y2="-322" stroke="#B9C1E1"/>
<line x1="686.296" y1="1118" x2="686.296" y2="-322" stroke="#B9C1E1"/>
<line x1="635.124" y1="1118" x2="635.124" y2="-322" stroke="#B9C1E1"/>
<line x1="583.952" y1="1118" x2="583.952" y2="-322" stroke="#B9C1E1"/>
<line x1="532.78" y1="1118" x2="532.78" y2="-322" stroke="#B9C1E1"/>
<line x1="481.608" y1="1118" x2="481.608" y2="-322" stroke="#B9C1E1"/>
<line x1="430.436" y1="1118" x2="430.436" y2="-322" stroke="#B9C1E1"/>
<line x1="379.265" y1="1118" x2="379.266" y2="-322" stroke="#B9C1E1"/>
<line x1="328.095" y1="1118" x2="328.095" y2="-322" stroke="#B9C1E1"/>
<line x1="276.924" y1="1118" x2="276.925" y2="-322" stroke="#B9C1E1"/>
<line x1="225.754" y1="1118" x2="225.754" y2="-322" stroke="#B9C1E1"/>
<line x1="174.583" y1="1118" x2="174.584" y2="-322" stroke="#B9C1E1"/>
<line x1="123.413" y1="1118" x2="123.413" y2="-322" stroke="#B9C1E1"/>
<line x1="72.2424" y1="1118" x2="72.2426" y2="-322" stroke="#B9C1E1"/>
<line x1="72.2424" y1="1118" x2="72.2426" y2="-322" stroke="#B9C1E1"/>
<line x1="21.0623" y1="1118" x2="21.0625" y2="-322" stroke="#B9C1E1"/>
<line x1="-3.00002" y1="27.5" x2="1045" y2="27.5" stroke="#B9C1E1"/>
<line x1="-3.00002" y1="77.5" x2="1045" y2="77.5" stroke="#B9C1E1"/>
<line x1="-3.00002" y1="127.5" x2="1045" y2="127.5" stroke="#B9C1E1"/>
<line x1="-3.00002" y1="177.5" x2="1045" y2="177.5" stroke="#B9C1E1"/>
<line x1="-3.00003" y1="227.5" x2="1045" y2="227.5" stroke="#B9C1E1"/>
<line x1="-3.00003" y1="277.5" x2="1045" y2="277.5" stroke="#B9C1E1"/>
<line x1="-3.00003" y1="327.5" x2="1045" y2="327.5" stroke="#B9C1E1"/>
<line x1="-3.00003" y1="377.5" x2="1045" y2="377.5" stroke="#B9C1E1"/>
<line x1="-3.00003" y1="427.5" x2="1045" y2="427.5" stroke="#B9C1E1"/>
<line x1="-3.00003" y1="477.5" x2="1045" y2="477.5" stroke="#B9C1E1"/>
<line x1="-3.00003" y1="527.5" x2="1045" y2="527.5" stroke="#B9C1E1"/>
<line x1="-3.00005" y1="577.5" x2="1045" y2="577.5" stroke="#B9C1E1"/>
<line x1="-3.00005" y1="627.5" x2="1045" y2="627.5" stroke="#B9C1E1"/>
<line x1="-3.00005" y1="677.5" x2="1045" y2="677.5" stroke="#B9C1E1"/>
<line x1="-3.00005" y1="727.5" x2="1045" y2="727.5" stroke="#B9C1E1"/>
<line x1="-3.00005" y1="777.5" x2="1045" y2="777.5" stroke="#B9C1E1"/>
<line x1="-3.00005" y1="827.5" x2="1045" y2="827.5" stroke="#B9C1E1"/>
<line x1="-3.00005" y1="877.5" x2="1045" y2="877.5" stroke="#B9C1E1"/>
<line x1="-3.00005" y1="877.5" x2="1045" y2="877.5" stroke="#B9C1E1"/>
<line x1="-3.00005" y1="852.5" x2="1045" y2="852.5" stroke="#B9C1E1"/>
<line x1="-3.00005" y1="827.5" x2="1045" y2="827.5" stroke="#B9C1E1"/>
<line x1="-3.00005" y1="802.5" x2="1045" y2="802.5" stroke="#B9C1E1"/>
<line x1="-3.00005" y1="777.5" x2="1045" y2="777.5" stroke="#B9C1E1"/>
<line x1="-3.00005" y1="752.5" x2="1045" y2="752.5" stroke="#B9C1E1"/>
<line x1="-3.00005" y1="727.5" x2="1045" y2="727.5" stroke="#B9C1E1"/>
<line x1="-3.00005" y1="702.5" x2="1045" y2="702.5" stroke="#B9C1E1"/>
<line x1="-3.00005" y1="677.5" x2="1045" y2="677.5" stroke="#B9C1E1"/>
<line x1="-3.00005" y1="652.5" x2="1045" y2="652.5" stroke="#B9C1E1"/>
<line x1="-3.00005" y1="627.5" x2="1045" y2="627.5" stroke="#B9C1E1"/>
<line x1="-3.00005" y1="602.5" x2="1045" y2="602.5" stroke="#B9C1E1"/>
<line x1="-3.00005" y1="577.5" x2="1045" y2="577.5" stroke="#B9C1E1"/>
<line x1="-3.00005" y1="552.5" x2="1045" y2="552.5" stroke="#B9C1E1"/>
<line x1="-3.00003" y1="527.5" x2="1045" y2="527.5" stroke="#B9C1E1"/>
<line x1="-3.00003" y1="502.5" x2="1045" y2="502.5" stroke="#B9C1E1"/>
<line x1="-3.00003" y1="477.5" x2="1045" y2="477.5" stroke="#B9C1E1"/>
<line x1="-3.00003" y1="452.5" x2="1045" y2="452.5" stroke="#B9C1E1"/>
<line x1="-3.00003" y1="427.5" x2="1045" y2="427.5" stroke="#B9C1E1"/>
<line x1="-3.00003" y1="402.5" x2="1045" y2="402.5" stroke="#B9C1E1"/>
<line x1="-3.00003" y1="377.5" x2="1045" y2="377.5" stroke="#B9C1E1"/>
<line x1="-3.00003" y1="352.5" x2="1045" y2="352.5" stroke="#B9C1E1"/>
<line x1="-3.00003" y1="327.5" x2="1045" y2="327.5" stroke="#B9C1E1"/>
<line x1="-3.00003" y1="302.5" x2="1045" y2="302.5" stroke="#B9C1E1"/>
<line x1="-3.00003" y1="277.5" x2="1045" y2="277.5" stroke="#B9C1E1"/>
<line x1="-3.00003" y1="252.5" x2="1045" y2="252.5" stroke="#B9C1E1"/>
<line x1="-3.00003" y1="227.5" x2="1045" y2="227.5" stroke="#B9C1E1"/>
<line x1="-3.00003" y1="202.5" x2="1045" y2="202.5" stroke="#B9C1E1"/>
<line x1="-3.00002" y1="177.5" x2="1045" y2="177.5" stroke="#B9C1E1"/>
<line x1="-3.00002" y1="152.5" x2="1045" y2="152.5" stroke="#B9C1E1"/>
<line x1="-3.00002" y1="127.5" x2="1045" y2="127.5" stroke="#B9C1E1"/>
<line x1="-3.00002" y1="102.5" x2="1045" y2="102.5" stroke="#B9C1E1"/>
<line x1="-3.00002" y1="77.5" x2="1045" y2="77.5" stroke="#B9C1E1"/>
<line x1="-3.00002" y1="52.5" x2="1045" y2="52.5" stroke="#B9C1E1"/>
<line x1="-3.00002" y1="27.5" x2="1045" y2="27.5" stroke="#B9C1E1"/>
<line x1="-3.00002" y1="2.5" x2="1045" y2="2.5" stroke="#B9C1E1"/>
</g>
</g>
<defs>
<clipPath id="clip0_88:29341">
<rect width="720" height="900" fill="white"/>
</clipPath>
</defs>
</svg>
