<svg width="16" height="16" viewBox="0 0 16 16" fill="none" xmlns="http://www.w3.org/2000/svg">
<path fill-rule="evenodd" clip-rule="evenodd" d="M6.09091 2.27273H2.27273L2.27273 6.09091H6.09091V2.27273ZM2.27273 1C1.56982 1 1 1.56982 1 2.27273V6.09091C1 6.79382 1.56982 7.36364 2.27273 7.36364H6.09091C6.79382 7.36364 7.36364 6.79382 7.36364 6.09091V2.27273C7.36364 1.56982 6.79382 1 6.09091 1H2.27273Z" fill="#092657"/>
<path fill-rule="evenodd" clip-rule="evenodd" d="M13.7271 2.27273H9.90896L9.90896 6.09091H13.7271V2.27273ZM9.90896 1C9.20605 1 8.63623 1.56982 8.63623 2.27273V6.09091C8.63623 6.79382 9.20605 7.36364 9.90896 7.36364H13.7271C14.43 7.36364 14.9999 6.79382 14.9999 6.09091V2.27273C14.9999 1.56982 14.43 1 13.7271 1H9.90896Z" fill="#092657"/>
<path fill-rule="evenodd" clip-rule="evenodd" d="M13.7271 9.90945H9.90896L9.90896 13.7276H13.7271V9.90945ZM9.90896 8.63672C9.20605 8.63672 8.63623 9.20654 8.63623 9.90945V13.7276C8.63623 14.4305 9.20605 15.0004 9.90896 15.0004H13.7271C14.43 15.0004 14.9999 14.4305 14.9999 13.7276V9.90945C14.9999 9.20654 14.43 8.63672 13.7271 8.63672H9.90896Z" fill="#092657"/>
<path fill-rule="evenodd" clip-rule="evenodd" d="M6.09091 9.90945H2.27273L2.27273 13.7276H6.09091V9.90945ZM2.27273 8.63672C1.56982 8.63672 1 9.20654 1 9.90945V13.7276C1 14.4305 1.56982 15.0004 2.27273 15.0004H6.09091C6.79382 15.0004 7.36364 14.4305 7.36364 13.7276V9.90945C7.36364 9.20654 6.79382 8.63672 6.09091 8.63672H2.27273Z" fill="#092657"/>
</svg>
