<svg width="23" height="35" viewBox="0 0 23 35" fill="none" xmlns="http://www.w3.org/2000/svg">
<path d="M12.1154 11.4421C12.1154 12.5565 11.2105 13.4613 10.0961 13.4613C8.98175 13.4613 8.0769 12.5565 8.0769 11.4421C8.0769 10.3277 8.98175 9.42285 10.0961 9.42285C11.2105 9.42285 12.1154 10.3277 12.1154 11.4421Z" fill="#BC2333"/>
<path d="M2.19057 0C2.19057 0 0.935672 11.2871 8.47074 14.3352C8.47074 14.3352 16.4735 18.3817 22.845 10.9076C22.845 10.9076 23.866 16.338 15.5438 19.4328C15.5438 19.4328 8.61334 19.6722 6.79945 26.5741C6.79945 26.5741 5.86969 31.7651 6.98768 35C6.98768 35 3.26863 30.0484 0.798775 19.9057C0.793071 19.9057 -1.71672 6.90774 2.19057 0Z" fill="#BC2333"/>
<path d="M7.71854 11.7238C7.71854 11.7238 5.94685 7.46588 7.11704 4.15734C7.11704 4.15734 11.5627 4.12281 13.2687 4.15734C13.2687 4.15734 18.1846 3.77182 19.0541 7.74783C19.0541 7.74783 19.9891 10.4119 17.9167 13.4615C17.9167 13.4615 22.3733 12.4316 22.8709 7.53493C22.8709 7.53493 23.3029 3.41507 19.322 1.09622C19.322 1.09622 16.4786 -0.0660889 14.4061 0.00295892H4.03845C4.03845 0.00295892 4.03845 9.37045 7.71854 11.7238Z" fill="#F6B532"/>
</svg>
