<svg width="16" height="16" viewBox="0 0 16 16" fill="none" xmlns="http://www.w3.org/2000/svg">
<g clip-path="url(#clip0_352_100427)">
<path d="M13.0916 4.36377C12.8987 4.36377 12.7137 4.4404 12.5773 4.57679C12.4409 4.71318 12.3643 4.89818 12.3643 5.09107V13.2302C12.3434 13.598 12.1781 13.9427 11.9043 14.1891C11.6305 14.4355 11.2704 14.5638 10.9024 14.5459H5.09859C4.73065 14.5638 4.37055 14.4355 4.09674 14.1891C3.82293 13.9427 3.65759 13.598 3.63672 13.2302V5.09107C3.63672 4.89818 3.5601 4.71318 3.4237 4.57679C3.28731 4.4404 3.10232 4.36377 2.90943 4.36377C2.71653 4.36377 2.53154 4.4404 2.39515 4.57679C2.25875 4.71318 2.18213 4.89818 2.18213 5.09107V13.2302C2.20289 13.9839 2.52147 14.6986 3.06811 15.2178C3.61474 15.7371 4.34487 16.0185 5.09859 16.0005H10.9024C11.6561 16.0185 12.3863 15.7371 12.9329 15.2178C13.4795 14.6986 13.7981 13.9839 13.8189 13.2302V5.09107C13.8189 4.89818 13.7423 4.71318 13.6059 4.57679C13.4695 4.4404 13.2845 4.36377 13.0916 4.36377Z" fill="#092657"/>
<path d="M13.8184 2.18189H10.9092V0.727297C10.9092 0.534406 10.8326 0.349415 10.6962 0.21302C10.5598 0.0766256 10.3748 0 10.1819 0H5.81813C5.62523 0 5.44024 0.0766256 5.30385 0.21302C5.16745 0.349415 5.09083 0.534406 5.09083 0.727297V2.18189H2.18164C1.98875 2.18189 1.80376 2.25852 1.66737 2.39491C1.53097 2.5313 1.45435 2.7163 1.45435 2.90919C1.45435 3.10208 1.53097 3.28707 1.66737 3.42346C1.80376 3.55986 1.98875 3.63648 2.18164 3.63648H13.8184C14.0113 3.63648 14.1963 3.55986 14.3327 3.42346C14.4691 3.28707 14.5457 3.10208 14.5457 2.90919C14.5457 2.7163 14.4691 2.5313 14.3327 2.39491C14.1963 2.25852 14.0113 2.18189 13.8184 2.18189ZM6.54542 2.18189V1.45459H9.45461V2.18189H6.54542Z" fill="#092657"/>
<path d="M7.2727 11.6362V6.54517C7.2727 6.35228 7.19608 6.16729 7.05968 6.03089C6.92329 5.8945 6.7383 5.81787 6.54541 5.81787C6.35252 5.81787 6.16753 5.8945 6.03114 6.03089C5.89474 6.16729 5.81812 6.35228 5.81812 6.54517V11.6362C5.81812 11.8291 5.89474 12.0141 6.03114 12.1505C6.16753 12.2869 6.35252 12.3635 6.54541 12.3635C6.7383 12.3635 6.92329 12.2869 7.05968 12.1505C7.19608 12.0141 7.2727 11.8291 7.2727 11.6362Z" fill="#092657"/>
<path d="M10.1824 11.6362V6.54517C10.1824 6.35228 10.1058 6.16729 9.96937 6.03089C9.83297 5.8945 9.64798 5.81787 9.45509 5.81787C9.26219 5.81787 9.0772 5.8945 8.94081 6.03089C8.80441 6.16729 8.72778 6.35228 8.72778 6.54517V11.6362C8.72778 11.8291 8.80441 12.0141 8.94081 12.1505C9.0772 12.2869 9.26219 12.3635 9.45509 12.3635C9.64798 12.3635 9.83297 12.2869 9.96937 12.1505C10.1058 12.0141 10.1824 11.8291 10.1824 11.6362Z" fill="#092657"/>
</g>
<defs>
<clipPath id="clip0_352_100427">
<rect width="16" height="16" fill="white"/>
</clipPath>
</defs>
</svg>
