<svg width="16" height="16" viewBox="0 0 16 16" fill="none" xmlns="http://www.w3.org/2000/svg">
<path d="M14.5013 4.14395L13.4433 5.20191L10.7984 2.55374L11.8564 1.49577C12.0719 1.28026 12.4474 1.28026 12.6629 1.49577L14.5013 3.33741C14.7233 3.55945 14.7233 3.9219 14.5013 4.14395ZM5.66208 12.993L3.01718 10.3448L9.85475 3.49741L12.4997 6.14558L5.66208 12.993ZM2.40657 11.6215L4.38535 13.6036L1.62942 14.3807L2.40657 11.6215ZM15.445 2.39374L13.6066 0.552099C13.2474 0.192914 11.9511 -0.486272 10.916 0.552099L1.60003 9.87457C1.5184 9.95621 1.45962 10.0542 1.43024 10.1652L0.0261501 15.1644C-0.0391562 15.3962 0.0294154 15.6444 0.195946 15.8174C0.365743 15.9905 0.705336 16.0199 0.84901 15.9872L5.84494 14.5799C5.95596 14.5505 6.05392 14.4917 6.13556 14.4101L15.445 5.08762C16.1862 4.3464 16.1862 3.13823 15.445 2.39374Z" fill="#092657"/>
</svg>
