<svg width="32" height="32" viewBox="0 0 32 32" fill="none" xmlns="http://www.w3.org/2000/svg">
<path d="M17 9V2H8C6.34315 2 5 3.34315 5 5V13C3.89543 13 3 13.8954 3 15V24C3 25.1046 3.89543 26 5 26L5 27C5 28.6569 6.34315 30 8 30H24C25.6569 30 27 28.6569 27 27V26C28.1046 26 29 25.1046 29 24V15C29 13.8954 28.1046 13 27 13V12H20C18.3431 12 17 10.6569 17 9ZM27 15V24H5V15H27ZM19 9V2.11664C19.4843 2.2558 19.9302 2.51602 20.2929 2.87868L26.1213 8.70711C26.484 9.06977 26.7442 9.51572 26.8834 10H20C19.4477 10 19 9.55229 19 9Z" fill="#6E7D97"/>
<path d="M8.51481 22.084C8.03881 22.084 7.65615 21.951 7.36681 21.685C7.08215 21.4143 6.93981 21.0317 6.93981 20.537H7.83581C7.84048 20.7657 7.89415 20.9477 7.99681 21.083C8.09948 21.2183 8.26515 21.286 8.49381 21.286C8.70848 21.286 8.86481 21.223 8.96281 21.097C9.06081 20.9663 9.10981 20.796 9.10981 20.586V17.1H10.0058V20.586C10.0058 21.0667 9.87048 21.4377 9.59981 21.699C9.33381 21.9557 8.97215 22.084 8.51481 22.084ZM12.6324 22.084C12.2731 22.084 11.9557 22.0233 11.6804 21.902C11.4051 21.776 11.1881 21.5987 11.0294 21.37C10.8707 21.1367 10.7891 20.8543 10.7844 20.523H11.7294C11.7387 20.7517 11.8204 20.9453 11.9744 21.104C12.1331 21.258 12.3501 21.335 12.6254 21.335C12.8634 21.335 13.0524 21.279 13.1924 21.167C13.3324 21.0503 13.4024 20.8963 13.4024 20.705C13.4024 20.5043 13.3394 20.348 13.2134 20.236C13.0921 20.124 12.9287 20.033 12.7234 19.963C12.5181 19.893 12.2987 19.8183 12.0654 19.739C11.6874 19.6083 11.3981 19.4403 11.1974 19.235C11.0014 19.0297 10.9034 18.7567 10.9034 18.416C10.8987 18.1267 10.9664 17.8793 11.1064 17.674C11.2511 17.464 11.4471 17.303 11.6944 17.191C11.9417 17.0743 12.2264 17.016 12.5484 17.016C12.8751 17.016 13.1621 17.0743 13.4094 17.191C13.6614 17.3077 13.8574 17.471 13.9974 17.681C14.1421 17.891 14.2191 18.1407 14.2284 18.43H13.2694C13.2647 18.2573 13.1971 18.1057 13.0664 17.975C12.9404 17.8397 12.7631 17.772 12.5344 17.772C12.3384 17.7673 12.1727 17.8163 12.0374 17.919C11.9067 18.017 11.8414 18.1617 11.8414 18.353C11.8414 18.5163 11.8927 18.647 11.9954 18.745C12.0981 18.8383 12.2381 18.9177 12.4154 18.983C12.5927 19.0483 12.7957 19.1183 13.0244 19.193C13.2671 19.277 13.4887 19.375 13.6894 19.487C13.8901 19.599 14.0511 19.7483 14.1724 19.935C14.2937 20.117 14.3544 20.3527 14.3544 20.642C14.3544 20.8987 14.2891 21.1367 14.1584 21.356C14.0277 21.5753 13.8341 21.7527 13.5774 21.888C13.3207 22.0187 13.0057 22.084 12.6324 22.084ZM17.4322 22.084C16.9422 22.084 16.5128 21.9767 16.1442 21.762C15.7802 21.5473 15.4932 21.251 15.2832 20.873C15.0778 20.4903 14.9752 20.0493 14.9752 19.55C14.9752 19.0507 15.0778 18.612 15.2832 18.234C15.4932 17.8513 15.7802 17.5527 16.1442 17.338C16.5128 17.1233 16.9422 17.016 17.4322 17.016C17.9175 17.016 18.3445 17.1233 18.7132 17.338C19.0818 17.5527 19.3688 17.8513 19.5742 18.234C19.7795 18.612 19.8822 19.0507 19.8822 19.55C19.8822 20.0493 19.7795 20.4903 19.5742 20.873C19.3688 21.251 19.0818 21.5473 18.7132 21.762C18.3445 21.9767 17.9175 22.084 17.4322 22.084ZM17.4322 21.279C17.8988 21.279 18.2698 21.125 18.5452 20.817C18.8252 20.509 18.9652 20.0867 18.9652 19.55C18.9652 19.0133 18.8252 18.591 18.5452 18.283C18.2698 17.975 17.8988 17.821 17.4322 17.821C16.9655 17.821 16.5922 17.975 16.3122 18.283C16.0322 18.591 15.8922 19.0133 15.8922 19.55C15.8922 20.0867 16.0322 20.509 16.3122 20.817C16.5922 21.125 16.9655 21.279 17.4322 21.279ZM20.6733 22V17.1H21.5693L23.8723 20.551V17.1H24.7683V22H23.8723L21.5693 18.556V22H20.6733Z" fill="#6E7D97"/>
</svg>
