<svg width="16" height="16" viewBox="0 0 16 16" fill="none" xmlns="http://www.w3.org/2000/svg">
<path fill-rule="evenodd" clip-rule="evenodd" d="M1.3501 3.99961C1.3501 3.64062 1.64111 3.34961 2.0001 3.34961H14.0001C14.3591 3.34961 14.6501 3.64062 14.6501 3.99961C14.6501 4.35859 14.3591 4.64961 14.0001 4.64961H2.0001C1.64111 4.64961 1.3501 4.35859 1.3501 3.99961Z" fill="#092657"/>
<path fill-rule="evenodd" clip-rule="evenodd" d="M1.3501 7.99961C1.3501 7.64062 1.64111 7.34961 2.0001 7.34961H14.0001C14.3591 7.34961 14.6501 7.64062 14.6501 7.99961C14.6501 8.35859 14.3591 8.64961 14.0001 8.64961H2.0001C1.64111 8.64961 1.3501 8.35859 1.3501 7.99961Z" fill="#092657"/>
<path fill-rule="evenodd" clip-rule="evenodd" d="M1.3501 11.9996C1.3501 11.6406 1.64111 11.3496 2.0001 11.3496H14.0001C14.3591 11.3496 14.6501 11.6406 14.6501 11.9996C14.6501 12.3586 14.3591 12.6496 14.0001 12.6496H2.0001C1.64111 12.6496 1.3501 12.3586 1.3501 11.9996Z" fill="#092657"/>
</svg>
