<svg width="18" height="18" viewBox="0 0 18 18" fill="none" xmlns="http://www.w3.org/2000/svg">
<path d="M13.7812 17.9989H4.21875C1.89253 17.9989 0 16.1063 0 13.7801V7.86433C0 6.55683 0.620684 5.30284 1.66029 4.50989L6.44154 0.863171C7.94795 -0.285771 10.0521 -0.285771 11.5585 0.863171L13.0781 2.02122V1.12385C13.1152 0.190948 14.4476 0.191651 14.4844 1.12385V3.44104C14.4844 3.70833 14.3328 3.95249 14.0933 4.07114C13.8537 4.18976 13.5676 4.16227 13.3551 4.0003L10.7059 1.98153C9.70137 1.2154 8.29856 1.2154 7.29432 1.98135L2.51307 5.62807C1.82004 6.15665 1.40625 6.99263 1.40625 7.86433V13.7801C1.40625 15.3309 2.66794 16.5926 4.21875 16.5926H13.7812C15.3321 16.5926 16.5938 15.3309 16.5938 13.7801V7.86433C16.5938 6.98194 16.1846 6.14311 15.4994 5.62041C15.1906 5.3849 15.1312 4.94369 15.3667 4.63494C15.6022 4.32617 16.0435 4.26679 16.3522 4.5023C17.384 5.28924 18 6.54607 18 7.86433V13.7801C18 16.1063 16.1075 17.9989 13.7812 17.9989ZM7.59375 8.11995C7.10835 8.11995 6.71484 8.51345 6.71484 8.99885C6.76129 10.165 8.42664 10.1641 8.47266 8.99885C8.47266 8.51342 8.07915 8.11995 7.59375 8.11995ZM11.2852 8.99882C11.2387 10.165 9.57336 10.1641 9.52734 8.99882C9.57378 7.83269 11.2391 7.8336 11.2852 8.99882ZM8.47266 11.8113C8.42622 12.9775 6.76086 12.9766 6.71484 11.8113C6.76129 10.6452 8.42664 10.6461 8.47266 11.8113ZM11.2852 11.8113C11.2387 12.9775 9.57336 12.9766 9.52734 11.8113C9.57378 10.6452 11.2391 10.6461 11.2852 11.8113Z" fill="#092657"/>
</svg>
