<svg width="15" height="16" viewBox="0 0 15 16" fill="none" xmlns="http://www.w3.org/2000/svg">
<path fill-rule="evenodd" clip-rule="evenodd" d="M1.0001 0.350098C1.35908 0.350098 1.6501 0.641113 1.6501 1.0001V15.0001C1.6501 15.3591 1.35908 15.6501 1.0001 15.6501C0.641113 15.6501 0.350098 15.3591 0.350098 15.0001V1.0001C0.350098 0.641113 0.641113 0.350098 1.0001 0.350098ZM10.6445 4.74771C10.8943 4.48994 11.3058 4.48351 11.5636 4.73335L14.4525 7.53335C14.5788 7.65578 14.6501 7.82418 14.6501 8.0001C14.6501 8.17601 14.5788 8.34441 14.4525 8.46684L11.5636 11.2668C11.3058 11.5167 10.8943 11.5103 10.6445 11.2525C10.3946 10.9947 10.401 10.5832 10.6588 10.3334L12.3955 8.6501H4.61121C4.25222 8.6501 3.96121 8.35908 3.96121 8.0001C3.96121 7.64111 4.25222 7.3501 4.61121 7.3501H12.3955L10.6588 5.66684C10.401 5.417 10.3946 5.00549 10.6445 4.74771Z" fill="#092657"/>
</svg>
