<svg width="147" height="45" viewBox="0 0 147 45" fill="none" xmlns="http://www.w3.org/2000/svg">
<g clip-path="url(#clip0_88:29607)">
<path d="M146.195 29.2701H129.011V29.9628H146.195V29.2701Z" fill="#808285"/>
<path d="M49.7411 29.2701H32.5574V29.9628H49.7411V29.2701Z" fill="#808285"/>
<path d="M52.977 29.4861H52.0019V30.4097H53.1543V30.9906H51.3739V27.5125H53.1543V28.1008H52.0019V28.9201H52.977V29.4861Z" fill="#BC2333"/>
<path d="M55.7993 28.7041L56.2204 27.5125H56.937L56.2056 29.2404L56.9517 30.9906H56.2277L55.7993 29.7766L55.3782 30.9906H54.6542L55.4003 29.2404L54.669 27.5125H55.3856L55.7993 28.7041Z" fill="#BC2333"/>
<path d="M59.2047 29.7692V30.9906H58.5841V27.5125H59.6405C59.9508 27.5125 60.1946 27.6167 60.3719 27.8327C60.5566 28.0487 60.6453 28.3243 60.6453 28.6669C60.6453 29.0095 60.5566 29.2776 60.3719 29.4712C60.1946 29.6723 59.9434 29.7692 59.6184 29.7692H59.2047ZM59.2047 29.1808H59.6332C59.7514 29.1808 59.8474 29.1361 59.9139 29.0467C59.9804 28.9573 60.0099 28.8307 60.0099 28.6669C60.0099 28.4956 59.973 28.3541 59.9065 28.2498C59.84 28.1455 59.7514 28.0934 59.6405 28.0934H59.2047V29.1808Z" fill="#BC2333"/>
<path d="M63.9774 29.4861H63.0022V30.4097H64.1547V30.9906H62.3743V27.5125H64.1547V28.1008H63.0022V28.9201H63.9774V29.4861Z" fill="#BC2333"/>
<path d="M66.77 29.717H66.4597V30.9906H65.8318V27.5125H66.8291C67.1468 27.5125 67.3832 27.6018 67.5605 27.788C67.7304 27.9668 67.8191 28.2274 67.8191 28.5626C67.8191 29.0244 67.6713 29.3446 67.3684 29.5308L67.9151 30.9534V30.9831H67.2428L66.77 29.717ZM66.4597 29.1361H66.8144C66.94 29.1361 67.036 29.0914 67.0951 28.9946C67.1542 28.9052 67.1911 28.7786 67.1911 28.6222C67.1911 28.2721 67.0729 28.1008 66.8291 28.1008H66.4597V29.1361Z" fill="#BC2333"/>
<path d="M70.2124 30.9906H69.5845V27.5125H70.2124V30.9906Z" fill="#BC2333"/>
<path d="M73.6552 29.4861H72.6801V30.4097H73.8325V30.9906H72.0521V27.5125H73.8325V28.1008H72.6801V28.9201H73.6552V29.4861Z" fill="#BC2333"/>
<path d="M77.674 30.9906H77.0461L76.13 28.7116V30.9906H75.5021V27.5125H76.13L77.0461 29.7989V27.5125H77.674V30.9906Z" fill="#BC2333"/>
<path d="M81.5896 29.8287C81.5748 30.2235 81.4714 30.5288 81.2941 30.7299C81.1094 30.931 80.8508 31.0353 80.5184 31.0353C80.1638 31.0353 79.8978 30.9087 79.7131 30.648C79.5284 30.3873 79.4324 30.0224 79.4324 29.5383V28.9499C79.4324 28.4732 79.5284 28.1008 79.7205 27.8476C79.9126 27.5869 80.1859 27.4603 80.5257 27.4603C80.8656 27.4603 81.1241 27.5646 81.2941 27.7806C81.4714 27.9891 81.5674 28.2945 81.597 28.6967H80.969C80.9616 28.4509 80.9321 28.2796 80.8656 28.1902C80.8065 28.0934 80.6883 28.0487 80.5257 28.0487C80.3558 28.0487 80.2376 28.1157 80.1711 28.2424C80.1046 28.3764 80.0677 28.5924 80.0603 28.8903V29.5457C80.0603 29.8883 80.0973 30.1267 80.1638 30.2607C80.2302 30.3873 80.3484 30.4544 80.5184 30.4544C80.6809 30.4544 80.7991 30.4097 80.8582 30.3203C80.9173 30.2309 80.9542 30.0671 80.9616 29.8287H81.5896Z" fill="#BC2333"/>
<path d="M84.8917 29.4861H83.9165V30.4097H85.069V30.9906H83.2886V27.5125H85.069V28.1008H83.9165V28.9201H84.8917V29.4861Z" fill="#BC2333"/>
<path d="M90.9349 28.1008H90.1665V30.9906H89.5386V28.1008H88.785V27.5125H90.9349V28.1008Z" fill="#BC2333"/>
<path d="M94.7837 30.9906H94.1558V29.501H93.2323V30.9906H92.6044V27.5125H93.2323V28.9201H94.1558V27.5125H94.7837V30.9906Z" fill="#BC2333"/>
<path d="M98.1233 30.2756H97.2663L97.0964 30.9906H96.4315L97.3993 27.5125H97.9755L98.9507 30.9906H98.2784L98.1233 30.2756ZM97.3993 29.6947H97.9829L97.6948 28.4583L97.3993 29.6947Z" fill="#BC2333"/>
<path d="M102.312 28.1008H101.544V30.9906H100.916V28.1008H100.162V27.5125H102.312V28.1008Z" fill="#BC2333"/>
<path d="M108.274 29.8287C108.259 30.2235 108.156 30.5288 107.978 30.7299C107.794 30.931 107.535 31.0353 107.203 31.0353C106.848 31.0353 106.582 30.9087 106.397 30.648C106.213 30.3873 106.117 30.0224 106.117 29.5383V28.9499C106.117 28.4732 106.213 28.1008 106.405 27.8476C106.597 27.5869 106.87 27.4603 107.21 27.4603C107.55 27.4603 107.808 27.5646 107.978 27.7806C108.156 27.9891 108.252 28.2945 108.281 28.6967H107.653C107.646 28.4509 107.616 28.2796 107.55 28.1902C107.491 28.0934 107.372 28.0487 107.21 28.0487C107.04 28.0487 106.922 28.1157 106.855 28.2424C106.789 28.3764 106.752 28.5924 106.745 28.8903V29.5457C106.745 29.8883 106.781 30.1267 106.848 30.2607C106.914 30.3873 107.033 30.4544 107.203 30.4544C107.365 30.4544 107.483 30.4097 107.542 30.3203C107.601 30.2309 107.638 30.0671 107.646 29.8287H108.274Z" fill="#BC2333"/>
<path d="M112.152 29.5606C112.152 30.0298 112.056 30.3873 111.857 30.648C111.657 30.9087 111.384 31.0353 111.037 31.0353C110.69 31.0353 110.416 30.9087 110.217 30.6555C110.017 30.4022 109.914 30.0447 109.914 29.583V28.9871C109.914 28.5105 110.01 28.1381 110.209 27.87C110.409 27.6018 110.682 27.4678 111.029 27.4678C111.377 27.4678 111.65 27.6018 111.85 27.8625C112.049 28.1232 112.152 28.4956 112.152 28.9722V29.5606ZM111.524 28.9797C111.524 28.6669 111.488 28.436 111.406 28.2796C111.325 28.1232 111.199 28.0487 111.037 28.0487C110.867 28.0487 110.749 28.1232 110.667 28.2721C110.586 28.4211 110.549 28.6445 110.542 28.9425V29.5606C110.542 29.866 110.579 30.0894 110.66 30.2309C110.741 30.3724 110.867 30.4469 111.037 30.4469C111.199 30.4469 111.325 30.3799 111.399 30.2384C111.48 30.0969 111.517 29.8809 111.517 29.583V28.9797H111.524Z" fill="#BC2333"/>
<path d="M115.935 27.5125V29.9181C115.935 30.2831 115.846 30.5586 115.669 30.7448C115.492 30.9385 115.241 31.0353 114.915 31.0353C114.583 31.0353 114.332 30.9385 114.155 30.7448C113.977 30.5512 113.889 30.2682 113.889 29.9032V27.5125H114.517V29.9032C114.517 30.1043 114.546 30.2384 114.605 30.3277C114.664 30.4097 114.768 30.4544 114.915 30.4544C115.063 30.4544 115.167 30.4097 115.226 30.3277C115.285 30.2458 115.307 30.1043 115.314 29.9181V27.5125H115.935Z" fill="#BC2333"/>
<path d="M119.894 30.9906H119.267L118.35 28.7116V30.9906H117.723V27.5125H118.35L119.267 29.7989V27.5125H119.894V30.9906Z" fill="#BC2333"/>
<path d="M123.655 28.1008H122.887V30.9906H122.259V28.1008H121.505V27.5125H123.655V28.1008Z" fill="#BC2333"/>
<path d="M126.603 30.0745C126.603 29.933 126.573 29.8287 126.506 29.7543C126.44 29.6798 126.322 29.6053 126.152 29.5308C125.842 29.3968 125.62 29.2404 125.48 29.0691C125.347 28.8903 125.273 28.6818 125.273 28.436C125.273 28.1455 125.369 27.9072 125.553 27.7284C125.738 27.5497 125.975 27.4603 126.263 27.4603C126.455 27.4603 126.625 27.505 126.772 27.5944C126.92 27.6838 127.038 27.8104 127.12 27.9742C127.201 28.1381 127.238 28.3243 127.238 28.5328H126.61C126.61 28.369 126.58 28.2498 126.514 28.1604C126.455 28.0785 126.366 28.0338 126.248 28.0338C126.137 28.0338 126.056 28.071 125.989 28.1455C125.93 28.22 125.901 28.3168 125.901 28.436C125.901 28.5328 125.938 28.6147 126.004 28.6967C126.071 28.7711 126.196 28.8531 126.366 28.935C126.669 29.0542 126.891 29.2106 127.024 29.3893C127.164 29.5681 127.23 29.7915 127.23 30.0671C127.23 30.3724 127.142 30.6033 126.972 30.7746C126.802 30.9459 126.566 31.0278 126.27 31.0278C126.071 31.0278 125.886 30.9832 125.723 30.8863C125.561 30.797 125.428 30.6629 125.339 30.4916C125.243 30.3203 125.199 30.1192 125.199 29.8809H125.827C125.827 30.082 125.864 30.2235 125.93 30.3203C125.997 30.4097 126.115 30.4544 126.27 30.4544C126.492 30.4693 126.603 30.3352 126.603 30.0745Z" fill="#BC2333"/>
<path d="M32.6166 9.30981H35.5273C36.5099 9.30981 37.2413 9.57794 37.7362 10.1067C38.2238 10.6355 38.475 11.4176 38.475 12.4379V13.6892C38.475 14.717 38.2312 15.4915 37.7362 16.0203C37.2487 16.5491 36.5099 16.8173 35.5273 16.8173H34.5965V21.9712H32.624V9.30981H32.6166ZM35.5199 15.0074C35.845 15.0074 36.0888 14.9181 36.2439 14.7393C36.4065 14.5606 36.4877 14.2477 36.4877 13.8158V12.3113C36.4877 11.8793 36.4065 11.5665 36.2439 11.3878C36.0814 11.209 35.8376 11.1196 35.5199 11.1196H34.5891V15.0074H35.5199Z" fill="#BC2333"/>
<path d="M39.0956 9.30981H42.0211C43.0406 9.30981 43.7794 9.54815 44.2448 10.0248C44.7102 10.5015 44.9466 11.2314 44.9466 12.2219V12.9965C44.9466 14.3148 44.5181 15.1415 43.6538 15.4915V15.5288C44.134 15.6703 44.4738 15.9682 44.6659 16.4151C44.8654 16.8619 44.9614 17.4578 44.9614 18.21V20.4369C44.9614 20.8019 44.9762 21.0923 44.9983 21.3158C45.0205 21.5392 45.0796 21.7626 45.1756 21.9786H43.1662C43.0923 21.7701 43.048 21.5839 43.0258 21.3977C43.0037 21.2189 42.9889 20.8912 42.9889 20.422V18.1057C42.9889 17.5248 42.8929 17.1226 42.7082 16.8917C42.5235 16.6609 42.2058 16.5491 41.7478 16.5491H41.0681V21.9786H39.0956V9.30981ZM41.7847 14.7393C42.1762 14.7393 42.4791 14.635 42.6712 14.4339C42.8707 14.2254 42.9667 13.8828 42.9667 13.4061V12.4305C42.9667 11.9687 42.8855 11.641 42.7229 11.4325C42.5604 11.2239 42.3092 11.1271 41.962 11.1271H41.0681V14.7468H41.7847V14.7393Z" fill="#BC2333"/>
<path d="M46.5054 21.3233C45.9882 20.7721 45.7371 19.9826 45.7371 18.9697V12.3113C45.7371 11.2984 45.9956 10.5164 46.5054 9.95782C47.0225 9.40668 47.7613 9.12366 48.7291 9.12366C49.6969 9.12366 50.443 9.39923 50.9528 9.95782C51.4699 10.5164 51.7211 11.2984 51.7211 12.3113V18.9697C51.7211 19.9826 51.4625 20.7647 50.9528 21.3233C50.4356 21.8818 49.6969 22.1574 48.7291 22.1574C47.7613 22.1574 47.0225 21.8818 46.5054 21.3233ZM49.756 19.0963V12.1847C49.756 11.3506 49.4161 10.9335 48.7365 10.9335C48.0568 10.9335 47.717 11.3506 47.717 12.1847V19.0963C47.717 19.9305 48.0568 20.3476 48.7365 20.3476C49.4161 20.3476 49.756 19.9305 49.756 19.0963Z" fill="#BC2333"/>
<path d="M52.6075 9.30981H55.6217C56.6043 9.30981 57.3357 9.57794 57.8306 10.1067C58.3182 10.6355 58.5694 11.4176 58.5694 12.4379V18.8431C58.5694 19.8709 58.3256 20.6455 57.8306 21.1743C57.343 21.7031 56.6043 21.9712 55.6217 21.9712H52.6075V9.30981ZM55.5922 20.1688C55.9172 20.1688 56.161 20.072 56.3383 19.8783C56.5082 19.6847 56.5969 19.3719 56.5969 18.9399V12.356C56.5969 11.924 56.5082 11.6112 56.3383 11.4176C56.1684 11.2239 55.9172 11.1271 55.5922 11.1271H54.5874V20.1762H55.5922V20.1688Z" fill="#BC2333"/>
<path d="M59.4486 9.30981H61.4211V21.9786H59.4486V9.30981Z" fill="#BC2333"/>
<path d="M63.0538 21.3307C62.5515 20.7796 62.3003 19.9975 62.3003 18.9697V12.3113C62.3003 11.2835 62.5515 10.5015 63.0538 9.95037C63.5562 9.39923 64.2876 9.12366 65.2406 9.12366C66.201 9.12366 66.925 9.39923 67.4273 9.95037C67.9297 10.5015 68.1809 11.2835 68.1809 12.3113V13.3987H66.3118V12.1847C66.3118 11.3506 65.972 10.9335 65.2923 10.9335C64.6126 10.9335 64.2728 11.3506 64.2728 12.1847V19.1187C64.2728 19.938 64.6126 20.3476 65.2923 20.3476C65.972 20.3476 66.3118 19.938 66.3118 19.1187V16.6385H65.3219V14.8287H68.1883V18.9697C68.1883 19.9975 67.9371 20.7796 67.4347 21.3307C66.9324 21.8818 66.201 22.1574 65.248 22.1574C64.2876 22.1574 63.5562 21.8818 63.0538 21.3307Z" fill="#BC2333"/>
<path d="M70.5596 16.5864L68.1733 9.30981H70.2714L71.616 13.9573H71.6529L72.9975 9.30981H74.9183L72.5321 16.5864V21.9786H70.5596V16.5864Z" fill="#BC2333"/>
<path d="M76.7285 9.30981H79.7427C80.7253 9.30981 81.4566 9.57794 81.9516 10.1067C82.4392 10.6355 82.6904 11.4176 82.6904 12.4379V18.8431C82.6904 19.8709 82.4466 20.6455 81.9516 21.1743C81.464 21.7031 80.7253 21.9712 79.7427 21.9712H76.7285V9.30981ZM79.7131 20.1688C80.0382 20.1688 80.282 20.072 80.4593 19.8783C80.6292 19.6847 80.7179 19.3719 80.7179 18.9399V12.356C80.7179 11.924 80.6292 11.6112 80.4593 11.4176C80.2894 11.2239 80.0382 11.1271 79.7131 11.1271H78.7084V20.1762H79.7131V20.1688Z" fill="#F6B532"/>
<path d="M85.0618 9.30981H87.7362L89.7825 21.9786H87.81L87.448 19.4613V19.4985H85.2022L84.8402 21.9786H83.0081L85.0618 9.30981ZM87.2116 17.778L86.3325 11.5144H86.2956L85.4312 17.778H87.2116Z" fill="#F6B532"/>
<path d="M91.0015 11.1196H88.9403V9.30981H95.0425V11.1196H92.9814V21.9786H91.0089V11.1196H91.0015Z" fill="#F6B532"/>
<path d="M96.2393 9.30981H98.9136L100.96 21.9786H98.9875L98.6255 19.4613V19.4985H96.3796L96.0176 21.9786H94.1929L96.2393 9.30981ZM98.3965 17.778L97.5173 11.5144H97.4804L96.616 17.778H98.3965Z" fill="#F6B532"/>
<path d="M101.802 21.3307C101.315 20.7796 101.064 19.9975 101.064 18.9697V18.2473H102.933V19.1187C102.933 19.938 103.273 20.3476 103.952 20.3476C104.285 20.3476 104.543 20.2508 104.713 20.0497C104.883 19.8486 104.972 19.5283 104.972 19.0814C104.972 18.5527 104.853 18.0834 104.61 17.6812C104.373 17.2791 103.93 16.795 103.28 16.2215C102.467 15.499 101.898 14.8436 101.573 14.2552C101.248 13.6669 101.086 13.0114 101.086 12.2741C101.086 11.2761 101.337 10.5015 101.839 9.95037C102.342 9.39923 103.073 9.12366 104.026 9.12366C104.972 9.12366 105.688 9.39923 106.168 9.95037C106.656 10.5015 106.892 11.2835 106.892 12.3113V12.8327H105.053V12.1847C105.053 11.7528 104.972 11.4325 104.802 11.2314C104.632 11.0303 104.388 10.9335 104.063 10.9335C103.405 10.9335 103.073 11.3357 103.073 12.1475C103.073 12.6093 103.199 13.0338 103.442 13.4285C103.686 13.8233 104.137 14.3074 104.78 14.8734C105.607 15.5958 106.176 16.2513 106.486 16.8471C106.796 17.4355 106.952 18.1281 106.952 18.925C106.952 19.9603 106.7 20.7572 106.191 21.3158C105.681 21.8744 104.942 22.15 103.974 22.15C103.021 22.1574 102.297 21.8818 101.802 21.3307Z" fill="#F6B532"/>
<path d="M109.345 16.5864L106.959 9.30981H109.057L110.402 13.9573H110.439L111.783 9.30981H113.704L111.318 16.5864V21.9786H109.345V16.5864Z" fill="#F6B532"/>
<path d="M114.265 21.3307C113.778 20.7796 113.526 19.9975 113.526 18.9697V18.2473H115.396V19.1187C115.396 19.938 115.735 20.3476 116.415 20.3476C116.748 20.3476 117.006 20.2508 117.176 20.0497C117.346 19.8486 117.435 19.5283 117.435 19.0814C117.435 18.5527 117.316 18.0834 117.073 17.6812C116.836 17.2791 116.393 16.795 115.743 16.2215C114.93 15.499 114.361 14.8436 114.036 14.2552C113.711 13.6669 113.549 13.0114 113.549 12.2741C113.549 11.2761 113.8 10.5015 114.302 9.95037C114.805 9.39923 115.536 9.12366 116.489 9.12366C117.435 9.12366 118.151 9.39923 118.631 9.95037C119.119 10.5015 119.355 11.2835 119.355 12.3113V12.8327H117.486V12.1847C117.486 11.7528 117.405 11.4325 117.235 11.2314C117.065 11.0303 116.821 10.9335 116.496 10.9335C115.839 10.9335 115.506 11.3357 115.506 12.1475C115.506 12.6093 115.632 13.0338 115.876 13.4285C116.12 13.8233 116.57 14.3074 117.213 14.8734C118.04 15.5958 118.609 16.2513 118.919 16.8471C119.23 17.4355 119.385 18.1281 119.385 18.925C119.385 19.9603 119.134 20.7572 118.624 21.3158C118.114 21.8744 117.375 22.15 116.408 22.15C115.477 22.1574 114.753 21.8818 114.265 21.3307Z" fill="#F6B532"/>
<path d="M121.638 11.1196H119.577V9.30981H125.679V11.1196H123.618V21.9786H121.646V11.1196H121.638Z" fill="#F6B532"/>
<path d="M126.182 9.30981H131.567V11.1196H128.154V14.4637H130.865V16.2736H128.154V20.1614H131.567V21.9712H126.182V9.30981Z" fill="#F6B532"/>
<path d="M132.247 9.30981H135.061L136.317 18.3739H136.354L137.61 9.30981H140.425V21.9786H138.556V12.3858H138.519L137.086 21.9786H135.431L133.998 12.3858H133.961V21.9786H132.239V9.30981H132.247Z" fill="#F6B532"/>
<path d="M141.851 21.3307C141.363 20.7796 141.112 19.9975 141.112 18.9697V18.2473H142.981V19.1187C142.981 19.938 143.321 20.3476 144.001 20.3476C144.333 20.3476 144.592 20.2508 144.762 20.0497C144.932 19.8486 145.02 19.5283 145.02 19.0814C145.02 18.5527 144.902 18.0834 144.658 17.6812C144.422 17.2791 143.979 16.795 143.328 16.2215C142.516 15.499 141.947 14.8436 141.622 14.2552C141.297 13.6669 141.134 13.0114 141.134 12.2741C141.134 11.2761 141.386 10.5015 141.888 9.95037C142.39 9.39923 143.122 9.12366 144.075 9.12366C145.02 9.12366 145.737 9.39923 146.217 9.95037C146.705 10.5015 146.941 11.2835 146.941 12.3113V12.8327H145.094V12.1847C145.094 11.7528 145.013 11.4325 144.843 11.2314C144.673 11.0303 144.429 10.9335 144.104 10.9335C143.447 10.9335 143.114 11.3357 143.114 12.1475C143.114 12.6093 143.24 13.0338 143.484 13.4285C143.727 13.8233 144.178 14.3074 144.821 14.8734C145.648 15.5958 146.217 16.2513 146.527 16.8471C146.838 17.4355 146.993 18.1281 146.993 18.925C146.993 19.9603 146.742 20.7572 146.232 21.3158C145.722 21.8744 144.983 22.15 144.016 22.15C143.063 22.1574 142.339 21.8818 141.851 21.3307Z" fill="#F6B532"/>
<path d="M16.4526 14.2626C16.4526 16.0054 15.0489 17.4205 13.3202 17.4205C11.5915 17.4205 10.1878 16.0054 10.1878 14.2626C10.1878 12.5198 11.5915 11.1047 13.3202 11.1047C15.0489 11.1047 16.4526 12.5198 16.4526 14.2626Z" fill="#BC2333"/>
<path d="M2.83677 0.350098C2.83677 0.350098 1.21148 14.7468 10.9706 18.6346C10.9706 18.6346 21.3355 23.796 29.5875 14.2627C29.5875 14.2627 30.9099 21.1892 20.1313 25.1366C20.1313 25.1366 11.1553 25.4419 8.80601 34.2453C8.80601 34.2453 7.60182 40.8665 9.04981 44.9926C9.04981 44.9926 4.23304 38.6768 1.03418 25.7399C1.02679 25.7399 -2.22379 9.16092 2.83677 0.350098Z" fill="#BC2333"/>
<path d="M9.16063 15.1713C9.16063 15.1713 6.76702 9.65992 8.34798 5.3774C8.34798 5.3774 14.3542 5.33272 16.6591 5.3774C16.6591 5.3774 23.3006 4.8784 24.4753 10.0249C24.4753 10.0249 25.7386 13.4732 22.9386 17.4206C22.9386 17.4206 28.9596 16.0874 29.6319 9.7493C29.6319 9.7493 30.2155 4.41663 24.8373 1.41514C24.8373 1.41514 20.9957 -0.0893286 18.1958 4.57964e-05H4.18872C4.18872 4.57964e-05 4.18872 12.1252 9.16063 15.1713Z" fill="#F6B532"/>
</g>
<defs>
<clipPath id="clip0_88:29607">
<rect width="147" height="45" fill="white"/>
</clipPath>
</defs>
</svg>
