<svg width="26" height="28" viewBox="0 0 26 28" fill="none" xmlns="http://www.w3.org/2000/svg">
<path fill-rule="evenodd" clip-rule="evenodd" d="M14 0V7C14 8.65685 15.3431 10 17 10H24V11C25.1046 11 26 11.8954 26 13V22C26 23.1046 25.1046 24 24 24V25C24 26.6569 22.6569 28 21 28H5C3.34315 28 2 26.6569 2 25L2 24C0.895432 24 0 23.1046 0 22V13C0 11.8954 0.895431 11 2 11V3C2 1.34315 3.34315 0 5 0H14ZM24 22V13H2V22H24ZM16 0.116644V7C16 7.55229 16.4477 8 17 8H23.8834C23.7442 7.51572 23.484 7.06977 23.1213 6.70711L17.2929 0.878679C16.9302 0.516019 16.4843 0.255799 16 0.116644ZM6.93401 15.1V20H7.83001V18.103H8.74701C9.14834 18.103 9.47734 18.0353 9.73401 17.9C9.99067 17.76 10.1797 17.578 10.301 17.354C10.4223 17.1253 10.483 16.8757 10.483 16.605C10.483 16.3203 10.42 16.0637 10.294 15.835C10.168 15.6063 9.97668 15.4267 9.72001 15.296C9.46334 15.1653 9.13901 15.1 8.74701 15.1H6.93401ZM8.69101 17.375H7.83001V15.828H8.69101C9.00367 15.828 9.22767 15.898 9.36301 16.038C9.50301 16.1733 9.57301 16.3623 9.57301 16.605C9.57301 16.843 9.50301 17.032 9.36301 17.172C9.22767 17.3073 9.00367 17.375 8.69101 17.375ZM11.186 15.1V20H12.859C13.433 20 13.9043 19.8997 14.273 19.699C14.6463 19.4937 14.9216 19.209 15.099 18.845C15.281 18.4763 15.372 18.0447 15.372 17.55C15.372 17.0553 15.281 16.626 15.099 16.262C14.9216 15.8933 14.6463 15.6087 14.273 15.408C13.9043 15.2027 13.433 15.1 12.859 15.1H11.186ZM12.817 19.23H12.082V15.863H12.817C13.2276 15.863 13.552 15.9307 13.79 16.066C14.028 16.2013 14.1983 16.395 14.301 16.647C14.4036 16.899 14.455 17.2 14.455 17.55C14.455 17.9047 14.4036 18.208 14.301 18.46C14.1983 18.7073 14.028 18.8987 13.79 19.034C13.552 19.1647 13.2276 19.23 12.817 19.23ZM16.1625 15.1V20H17.0585V17.9H18.8925V17.193H17.0585V15.821H19.3265V15.1H16.1625Z" fill="#6E7D97"/>
</svg>
