<svg width="16" height="16" viewBox="0 0 16 16" fill="none" xmlns="http://www.w3.org/2000/svg">
<path d="M8.0091 0C8.6363 0.00694115 9.26105 0.076523 9.87326 0.207622C10.1405 0.26485 10.3404 0.478779 10.3707 0.740074L10.5162 1.99287C10.582 2.5681 11.0878 3.00377 11.6908 3.00438C11.8529 3.00462 12.0132 2.97221 12.163 2.90859L13.3598 2.40375C13.6088 2.29875 13.8996 2.35599 14.0854 2.54656C14.9504 3.43356 15.5946 4.49736 15.9695 5.65793C16.0503 5.90818 15.9573 6.18015 15.7376 6.33561L14.6767 7.08645C14.3741 7.29995 14.1954 7.639 14.1954 7.99957C14.1954 8.36015 14.3741 8.6992 14.6774 8.91317L15.7392 9.66427C15.9589 9.81971 16.052 10.0917 15.9712 10.342C15.5964 11.5024 14.9526 12.5661 14.0882 13.4532C13.9025 13.6438 13.6119 13.7012 13.363 13.5965L12.1612 13.0909C11.8174 12.9464 11.4226 12.9676 11.0977 13.1479C10.7728 13.3282 10.5565 13.6461 10.5152 14.0043L10.3708 15.257C10.341 15.5153 10.1454 15.7278 9.8821 15.7879C8.64436 16.0707 7.35479 16.0707 6.11705 15.7879C5.85375 15.7278 5.65818 15.5153 5.62839 15.257L5.48412 14.0062C5.44175 13.6487 5.22518 13.3317 4.90053 13.152C4.57588 12.9723 4.18169 12.9513 3.83902 13.0949L2.63701 13.6006C2.38804 13.7053 2.09734 13.6478 1.9117 13.4572C1.04678 12.569 0.402949 11.5041 0.0286714 10.3424C-0.0519437 10.0922 0.0411995 9.82043 0.2608 9.66509L1.32326 8.91352C1.62589 8.70002 1.80462 8.36097 1.80462 8.00039C1.80462 7.63982 1.62589 7.30077 1.32287 7.08699L0.26107 6.33671C0.0411434 6.18131 -0.0520855 5.90917 0.0288139 5.65875C0.40374 4.49819 1.04791 3.43438 1.91284 2.54738C2.09868 2.35681 2.38951 2.29957 2.63844 2.40457L3.8351 2.90932C4.17943 3.05441 4.57528 3.0325 4.90168 2.8494C5.22668 2.66839 5.44304 2.35014 5.48481 1.99192L5.63015 0.740074C5.6605 0.478647 5.86054 0.264649 6.12796 0.207543C6.74089 0.0766523 7.3663 0.00710051 8.0091 0ZM8.00926 1.23069C7.62127 1.23508 7.23437 1.26723 6.85176 1.32679L6.75868 2.12857C6.67166 2.87482 6.2213 3.53726 5.54655 3.91306C4.86767 4.2939 4.03997 4.33972 3.31979 4.03625L2.55217 3.71247C2.06344 4.28204 1.67444 4.9242 1.40046 5.6137L2.08221 6.09543C2.71354 6.54083 3.08641 7.24816 3.08641 8.00039C3.08641 8.75263 2.71354 9.45996 2.08287 9.90489L1.40006 10.3879C1.6738 11.0786 2.06286 11.722 2.55193 12.2926L3.32539 11.9673C4.04156 11.667 4.86363 11.711 5.54066 12.0857C6.2177 12.4604 6.66933 13.1215 6.75791 13.8689L6.85102 14.6761C7.61125 14.8003 8.3879 14.8003 9.14812 14.6761L9.24123 13.8689C9.32736 13.1217 9.77847 12.4584 10.4563 12.0823C11.1341 11.7061 11.9579 11.662 12.6754 11.9635L13.4482 12.2886C13.9368 11.7188 14.3257 11.0765 14.5997 10.3869L13.9178 9.90454C13.2865 9.45914 12.9136 8.75181 12.9136 7.99957C12.9136 7.24734 13.2865 6.54001 13.917 6.09517L14.598 5.61322C14.324 4.92359 13.9349 4.28131 13.4461 3.71165L12.6801 4.03477C12.3679 4.1674 12.0302 4.23567 11.6891 4.23515C10.4332 4.23389 9.37922 3.326 9.24214 2.12827L9.14906 1.32652C8.76834 1.26704 8.38548 1.23497 8.00926 1.23069ZM7.99843 4.92305C9.76822 4.92305 11.2029 6.30064 11.2029 7.99998C11.2029 9.69932 9.76822 11.0769 7.99843 11.0769C6.22865 11.0769 4.79395 9.69932 4.79395 7.99998C4.79395 6.30064 6.22865 4.92305 7.99843 4.92305ZM7.99843 6.15382C6.93656 6.15382 6.07574 6.98037 6.07574 7.99998C6.07574 9.01958 6.93656 9.84614 7.99843 9.84614C9.06031 9.84614 9.92112 9.01958 9.92112 7.99998C9.92112 6.98037 9.06031 6.15382 7.99843 6.15382Z" fill="#092657"/>
</svg>
