<svg width="587" height="434" viewBox="0 0 587 434" fill="none" xmlns="http://www.w3.org/2000/svg">
<path d="M489.309 356.482C488.483 356.12 487.849 355.626 487.407 355.002C486.976 354.373 486.739 353.662 486.695 352.869C486.655 352.067 486.825 351.234 487.205 350.369C487.582 349.512 488.077 348.831 488.69 348.326C489.307 347.813 489.993 347.503 490.748 347.395C491.511 347.29 492.305 347.419 493.13 347.781C494.092 348.204 494.771 348.779 495.167 349.508C495.576 350.232 495.683 351.043 495.489 351.942L494.371 351.452C494.471 350.875 494.39 350.342 494.127 349.853C493.875 349.36 493.413 348.966 492.74 348.671C492.139 348.407 491.552 348.316 490.98 348.4C490.412 348.475 489.889 348.719 489.412 349.13C488.947 349.538 488.556 350.102 488.239 350.823C487.922 351.544 487.77 352.218 487.781 352.844C487.804 353.466 487.979 354.015 488.304 354.493C488.633 354.962 489.098 355.329 489.699 355.593C490.372 355.888 490.972 355.97 491.498 355.838C492.036 355.702 492.482 355.405 492.835 354.949L493.953 355.44C493.429 356.175 492.762 356.637 491.953 356.826C491.151 357.019 490.27 356.904 489.309 356.482ZM496.925 359.827C496.364 359.581 495.915 359.231 495.579 358.778C495.243 358.324 495.045 357.807 494.985 357.226C494.936 356.641 495.051 356.032 495.329 355.399C495.607 354.766 495.98 354.275 496.448 353.927C496.92 353.57 497.437 353.362 497.998 353.303C498.567 353.247 499.133 353.342 499.693 353.589C500.254 353.835 500.703 354.185 501.039 354.638C501.375 355.092 501.567 355.611 501.616 356.196C501.676 356.777 501.567 357.384 501.289 358.017C501.011 358.65 500.636 359.145 500.164 359.501C499.696 359.85 499.177 360.052 498.608 360.108C498.046 360.167 497.485 360.074 496.925 359.827ZM497.305 358.962C497.649 359.113 498.007 359.17 498.377 359.132C498.747 359.094 499.098 358.947 499.43 358.691C499.763 358.436 500.038 358.06 500.256 357.563C500.474 357.066 500.565 356.609 500.528 356.192C500.5 355.778 500.374 355.422 500.152 355.123C499.929 354.825 499.65 354.602 499.313 354.454C498.969 354.303 498.611 354.246 498.241 354.284C497.871 354.322 497.519 354.469 497.187 354.724C496.855 354.98 496.58 355.356 496.362 355.853C496.144 356.35 496.053 356.807 496.09 357.224C496.126 357.642 496.251 357.998 496.466 358.293C496.689 358.591 496.968 358.814 497.305 358.962ZM501.384 361.614L505.184 352.961L506.194 353.404L502.393 362.057L501.384 361.614ZM504.048 362.784L507.848 354.131L508.858 354.575L505.058 363.227L504.048 362.784ZM508.632 364.969C508.135 364.751 507.759 364.486 507.505 364.173C507.25 363.861 507.104 363.529 507.067 363.178C507.03 362.827 507.084 362.488 507.228 362.159C507.495 361.55 507.934 361.184 508.543 361.059C509.152 360.935 509.857 361.049 510.658 361.401L512.268 362.108L512.3 362.036C512.529 361.515 512.565 361.063 512.409 360.679C512.256 360.287 511.951 359.99 511.494 359.79C511.102 359.617 510.717 359.568 510.341 359.641C509.976 359.711 509.675 359.918 509.437 360.262L508.404 359.809C508.634 359.393 508.938 359.092 509.317 358.905C509.703 358.721 510.118 358.636 510.562 358.649C511.009 358.654 511.445 358.75 511.869 358.936C512.702 359.302 513.229 359.801 513.448 360.433C513.68 361.06 513.633 361.742 513.309 362.479L511.7 366.145L510.798 365.749L511.208 364.653C510.892 364.915 510.517 365.095 510.083 365.191C509.66 365.282 509.177 365.209 508.632 364.969ZM509.163 364.185C509.547 364.353 509.92 364.398 510.28 364.317C510.649 364.24 510.975 364.073 511.26 363.816C511.545 363.558 511.765 363.254 511.92 362.901L511.925 362.889L510.399 362.219C509.806 361.958 509.34 361.878 509 361.977C508.671 362.072 508.44 362.271 508.307 362.576C508.17 362.888 508.171 363.19 508.311 363.481C508.462 363.767 508.746 364.002 509.163 364.185ZM516.335 368.353C515.847 368.138 515.454 367.846 515.157 367.477C514.869 367.111 514.703 366.704 514.662 366.256L514.127 367.211L513.214 366.81L517.014 358.157L518.024 358.6L516.409 362.278C516.728 362.074 517.114 361.933 517.569 361.856C518.032 361.782 518.539 361.866 519.092 362.109C519.685 362.369 520.142 362.732 520.463 363.198C520.784 363.664 520.961 364.186 520.994 364.765C521.034 365.346 520.923 365.938 520.659 366.539C520.395 367.14 520.035 367.622 519.579 367.985C519.134 368.345 518.628 368.562 518.06 368.637C517.503 368.708 516.928 368.613 516.335 368.353ZM516.612 367.428C517.013 367.604 517.406 367.667 517.791 367.616C518.18 367.557 518.537 367.399 518.861 367.14C519.185 366.88 519.446 366.527 519.643 366.078C519.84 365.629 519.924 365.198 519.895 364.784C519.867 364.37 519.741 364.004 519.517 363.686C519.297 363.36 518.987 363.109 518.587 362.933C518.186 362.757 517.791 362.699 517.402 362.757C517.017 362.808 516.662 362.963 516.338 363.222C516.014 363.481 515.754 363.835 515.557 364.283C515.359 364.732 515.275 365.163 515.304 365.577C515.332 365.991 515.456 366.361 515.676 366.687C515.9 367.005 516.212 367.252 516.612 367.428ZM523.413 371.461C522.852 371.215 522.404 370.865 522.068 370.412C521.732 369.958 521.533 369.441 521.473 368.86C521.424 368.275 521.539 367.666 521.817 367.033C522.095 366.4 522.468 365.909 522.937 365.561C523.409 365.204 523.925 364.996 524.487 364.937C525.056 364.881 525.621 364.976 526.182 365.223C526.743 365.469 527.191 365.819 527.527 366.272C527.863 366.726 528.056 367.245 528.104 367.83C528.165 368.411 528.056 369.018 527.778 369.651C527.5 370.284 527.125 370.779 526.653 371.135C526.184 371.484 525.665 371.686 525.096 371.742C524.535 371.801 523.974 371.708 523.413 371.461ZM523.793 370.596C524.138 370.747 524.495 370.804 524.865 370.766C525.236 370.728 525.587 370.581 525.919 370.326C526.251 370.07 526.526 369.694 526.744 369.197C526.962 368.7 527.053 368.243 527.017 367.826C526.988 367.412 526.863 367.056 526.64 366.757C526.418 366.459 526.138 366.236 525.802 366.088C525.457 365.937 525.1 365.88 524.729 365.918C524.359 365.956 524.008 366.103 523.676 366.358C523.344 366.614 523.069 366.99 522.85 367.487C522.632 367.984 522.541 368.441 522.578 368.858C522.614 369.276 522.74 369.632 522.954 369.927C523.177 370.225 523.456 370.448 523.793 370.596ZM527.872 373.248L530.49 367.287L531.404 367.688L530.986 368.867C531.343 368.555 531.761 368.366 532.239 368.299C532.718 368.232 533.234 368.32 533.787 368.563L533.322 369.62L533.046 369.499C532.693 369.344 532.341 369.266 531.988 369.264C531.639 369.254 531.311 369.358 531.004 369.577C530.698 369.796 530.43 370.166 530.201 370.687L528.882 373.691L527.872 373.248ZM534.158 376.181C533.661 375.962 533.285 375.697 533.031 375.385C532.776 375.072 532.63 374.74 532.593 374.39C532.556 374.039 532.61 373.699 532.754 373.371C533.022 372.762 533.46 372.395 534.069 372.271C534.678 372.146 535.383 372.26 536.184 372.612L537.794 373.319L537.826 373.247C538.055 372.726 538.091 372.274 537.935 371.89C537.782 371.498 537.477 371.202 537.021 371.001C536.628 370.829 536.243 370.779 535.867 370.853C535.502 370.922 535.201 371.129 534.963 371.474L533.93 371.02C534.16 370.605 534.464 370.304 534.843 370.116C535.23 369.932 535.645 369.847 536.088 369.86C536.535 369.865 536.971 369.961 537.395 370.148C538.229 370.514 538.755 371.013 538.974 371.644C539.206 372.271 539.159 372.954 538.835 373.691L537.226 377.356L536.324 376.96L536.734 375.864C536.418 376.127 536.043 376.306 535.609 376.402C535.186 376.494 534.703 376.42 534.158 376.181ZM534.689 375.396C535.073 375.565 535.446 375.609 535.806 375.528C536.175 375.451 536.501 375.284 536.786 375.027C537.071 374.77 537.291 374.465 537.446 374.112L537.451 374.1L535.925 373.43C535.332 373.17 534.866 373.089 534.526 373.188C534.198 373.283 533.967 373.483 533.833 373.787C533.696 374.1 533.697 374.401 533.837 374.692C533.988 374.978 534.272 375.213 534.689 375.396ZM540.931 378.984C540.386 378.744 540.016 378.424 539.819 378.022C539.623 377.621 539.676 377.075 539.979 376.386L541.42 373.105L540.386 372.651L540.761 371.798L541.795 372.252L542.555 370.88L543.432 371.265L542.804 372.695L544.559 373.466L544.184 374.319L542.429 373.549L540.988 376.83C540.823 377.206 540.787 377.496 540.879 377.699C540.975 377.894 541.215 378.076 541.6 378.245L542.225 378.519L541.845 379.385L540.931 378.984ZM547.035 372.977C546.835 372.889 546.694 372.751 546.615 372.563C546.546 372.37 546.556 372.174 546.644 371.974C546.728 371.781 546.863 371.649 547.047 371.577C547.24 371.509 547.436 371.519 547.637 371.607C547.829 371.691 547.965 371.827 548.045 372.015C548.125 372.203 548.122 372.394 548.038 372.586C547.95 372.786 547.808 372.924 547.612 373.001C547.419 373.069 547.227 373.061 547.035 372.977ZM543.331 380.038L545.949 374.077L546.959 374.52L544.341 380.481L543.331 380.038ZM548.751 382.59C548.19 382.344 547.742 381.994 547.406 381.541C547.07 381.087 546.872 380.57 546.811 379.989C546.763 379.404 546.877 378.795 547.155 378.162C547.433 377.529 547.806 377.038 548.275 376.69C548.747 376.333 549.264 376.125 549.825 376.066C550.394 376.01 550.959 376.105 551.52 376.352C552.081 376.598 552.529 376.948 552.865 377.401C553.201 377.855 553.394 378.374 553.443 378.959C553.503 379.54 553.394 380.147 553.116 380.78C552.838 381.413 552.463 381.908 551.991 382.264C551.523 382.613 551.004 382.815 550.434 382.871C549.873 382.93 549.312 382.837 548.751 382.59ZM549.131 381.725C549.476 381.876 549.833 381.933 550.204 381.895C550.574 381.857 550.925 381.71 551.257 381.454C551.589 381.199 551.864 380.823 552.082 380.326C552.301 379.829 552.392 379.372 552.355 378.955C552.327 378.541 552.201 378.185 551.979 377.886C551.756 377.588 551.476 377.365 551.14 377.217C550.795 377.066 550.438 377.009 550.068 377.047C549.697 377.085 549.346 377.232 549.014 377.487C548.682 377.743 548.407 378.119 548.189 378.616C547.971 379.113 547.88 379.57 547.916 379.987C547.953 380.405 548.078 380.761 548.293 381.056C548.515 381.354 548.795 381.577 549.131 381.725ZM553.211 384.377L555.829 378.416L556.742 378.817L556.332 379.913C556.69 379.621 557.097 379.446 557.552 379.388C558.008 379.33 558.464 379.401 558.921 379.602C559.626 379.912 560.091 380.374 560.318 380.99C560.556 381.601 560.48 382.351 560.089 383.241L558.559 386.726L557.549 386.282L559.032 382.905C559.578 381.664 559.338 380.817 558.312 380.367C557.799 380.142 557.288 380.142 556.778 380.367C556.28 380.588 555.879 381.043 555.577 381.732L554.22 384.82L553.211 384.377Z" fill="#3C409E"/>
<rect x="480.754" y="327.092" width="110.951" height="37.3273" transform="rotate(23.7118 480.754 327.092)" stroke="#688EF1" stroke-width="1.64073"/>
<rect x="479.539" y="322.802" width="5.67431" height="5.67431" transform="rotate(23.7118 479.539 322.802)" fill="white" stroke="#688EF1" stroke-width="0.820367"/>
<rect x="581.264" y="367.102" width="5.67431" height="5.67431" transform="rotate(23.7118 581.264 367.102)" fill="white" stroke="#688EF1" stroke-width="0.820367"/>
<rect x="463.869" y="358.479" width="5.67431" height="5.67431" transform="rotate(23.7118 463.869 358.479)" fill="white" stroke="#688EF1" stroke-width="0.820367"/>
<rect x="565.594" y="402.78" width="5.67431" height="5.67431" transform="rotate(23.7118 565.594 402.78)" fill="white" stroke="#688EF1" stroke-width="0.820367"/>
<rect x="514.452" y="380.459" width="5.67431" height="5.67431" transform="rotate(23.7118 514.452 380.459)" fill="white" stroke="#688EF1" stroke-width="0.820367"/>
<rect x="530.122" y="344.78" width="5.67431" height="5.67431" transform="rotate(23.7118 530.122 344.78)" fill="white" stroke="#688EF1" stroke-width="0.820367"/>
<path d="M35.4303 284.367L33.2867 276.367L30.6368 277.077L30.4024 276.202L36.7671 274.497L37.0015 275.371L34.3517 276.082L36.4953 284.082L35.4303 284.367ZM42.1112 282.74C41.5111 282.901 40.9424 282.908 40.405 282.762C39.8654 282.608 39.3946 282.322 38.9928 281.904C38.5994 281.484 38.3133 280.94 38.1344 280.272C37.9577 279.613 37.9347 279.003 38.0654 278.443C38.1938 277.874 38.4542 277.392 38.8466 276.997C39.2452 276.591 39.753 276.306 40.37 276.14C40.9786 275.977 41.54 275.976 42.0543 276.137C42.5747 276.288 43.0133 276.555 43.37 276.94C43.7267 277.325 43.9741 277.775 44.1123 278.29C44.1372 278.383 44.1579 278.477 44.1743 278.573C44.1993 278.666 44.2276 278.771 44.2593 278.89L39.2512 280.231C39.4057 280.706 39.6231 281.078 39.9036 281.348C40.1903 281.606 40.503 281.776 40.8419 281.857C41.1892 281.936 41.5319 281.93 41.87 281.84C42.3095 281.722 42.65 281.522 42.8915 281.24C43.133 280.958 43.2749 280.625 43.3173 280.243L44.3696 279.961C44.3569 280.589 44.1617 281.162 43.7841 281.68C43.4126 282.187 42.855 282.541 42.1112 282.74ZM40.5859 277.047C40.0787 277.183 39.6684 277.461 39.3549 277.88C39.0477 278.288 38.9437 278.796 39.0431 279.404L42.9988 278.344C42.8217 277.784 42.5084 277.393 42.0589 277.169C41.6094 276.945 41.1184 276.905 40.5859 277.047ZM48.5942 281.003C48.0702 281.143 47.6111 281.171 47.217 281.087C46.8229 281.002 46.5017 280.834 46.2534 280.584C46.005 280.333 45.8345 280.035 45.7416 279.688C45.5695 279.046 45.6821 278.486 46.0795 278.008C46.4769 277.53 47.0982 277.178 47.9434 276.951L49.6424 276.496L49.622 276.42C49.4748 275.87 49.2201 275.495 48.858 275.293C48.4936 275.082 48.0705 275.042 47.5887 275.171C47.1745 275.282 46.8436 275.484 46.596 275.777C46.3545 276.059 46.2489 276.409 46.2793 276.826L45.1889 277.118C45.1089 276.651 45.158 276.225 45.3362 275.842C45.5229 275.457 45.7934 275.131 46.1476 274.864C46.4996 274.589 46.8995 274.391 47.3475 274.271C48.2266 274.035 48.9493 274.095 49.5156 274.451C50.0882 274.796 50.4786 275.357 50.687 276.134L51.7231 280.001L50.7722 280.256L50.4065 279.145C50.3241 279.547 50.1436 279.922 49.865 280.268C49.5926 280.604 49.169 280.849 48.5942 281.003ZM48.5179 280.059C48.9236 279.95 49.2418 279.751 49.4726 279.463C49.7118 279.172 49.8622 278.838 49.9237 278.459C49.9853 278.08 49.9662 277.705 49.8666 277.333L49.8632 277.32L48.253 277.751C47.6275 277.919 47.2132 278.148 47.0101 278.438C46.8131 278.717 46.7577 279.017 46.8437 279.338C46.9321 279.668 47.1217 279.903 47.4128 280.042C47.71 280.171 48.0783 280.176 48.5179 280.059ZM53.3208 279.573L51.6358 273.285L52.5994 273.027L52.9201 273.919C53.0323 273.527 53.2326 273.192 53.5209 272.916C53.8091 272.639 54.1646 272.444 54.5872 272.331C55.0859 272.197 55.5399 272.184 55.9493 272.292C56.3671 272.397 56.7287 272.631 57.0341 272.993C57.1519 272.554 57.3716 272.174 57.693 271.852C58.023 271.528 58.4119 271.306 58.8599 271.186C59.6122 270.984 60.2734 271.052 60.8437 271.388C61.4117 271.716 61.8214 272.349 62.0728 273.287L63.058 276.964L62.0057 277.246L61.0511 273.684C60.8767 273.033 60.6143 272.578 60.2639 272.318C59.9136 272.059 59.4933 271.995 59.0031 272.126C58.4959 272.262 58.1265 272.574 57.8949 273.062C57.6694 273.539 57.6541 274.141 57.8488 274.868L58.7219 278.126L57.6569 278.411L56.7023 274.849C56.5279 274.198 56.2655 273.743 55.9152 273.483C55.5648 273.224 55.1445 273.16 54.6543 273.291C54.1556 273.425 53.7904 273.736 53.5588 274.223C53.3333 274.701 53.318 275.303 53.5128 276.03L54.3858 279.288L53.3208 279.573ZM69.2855 275.296L65.7621 269.5L66.8271 269.214L69.4798 273.79L69.629 268.463L70.8335 268.141L73.6384 272.675L73.6355 267.39L74.7132 267.101L74.5598 273.882L73.4694 274.175L70.5332 269.403L70.3758 275.003L69.2855 275.296ZM80.247 272.522C79.6553 272.68 79.0866 272.688 78.5408 272.544C77.995 272.4 77.5169 272.121 77.1066 271.705C76.7025 271.279 76.411 270.732 76.2321 270.064C76.0532 269.396 76.0375 268.78 76.1851 268.215C76.3304 267.642 76.6035 267.156 77.0043 266.759C77.4136 266.359 77.9141 266.08 78.5058 265.922C79.0975 265.763 79.6662 265.756 80.212 265.9C80.7578 266.043 81.2328 266.328 81.6369 266.754C82.0472 267.17 82.3418 267.711 82.5207 268.379C82.6996 269.047 82.7164 269.668 82.5711 270.241C82.4236 270.806 82.1451 271.288 81.7358 271.688C81.3349 272.085 80.8387 272.363 80.247 272.522ZM80.0024 271.609C80.3659 271.511 80.6802 271.332 80.9453 271.071C81.2105 270.809 81.3928 270.475 81.492 270.068C81.5913 269.661 81.5708 269.195 81.4303 268.671C81.2899 268.147 81.0749 267.734 80.7854 267.431C80.5043 267.126 80.1837 266.926 79.8234 266.833C79.4631 266.739 79.1054 266.74 78.7504 266.835C78.3869 266.932 78.0726 267.111 77.8075 267.373C77.5423 267.634 77.36 267.968 77.2608 268.375C77.1615 268.782 77.182 269.248 77.3225 269.772C77.4629 270.296 77.6779 270.71 77.9674 271.013C78.2569 271.315 78.5776 271.515 78.9294 271.611C79.2897 271.705 79.6474 271.704 80.0024 271.609ZM84.844 271.127L83.159 264.838L84.1226 264.58L84.5341 265.761C84.6175 265.294 84.825 264.885 85.1566 264.534C85.4882 264.182 85.9456 263.928 86.5288 263.772L86.8277 264.888L86.5361 264.966C86.1642 265.066 85.84 265.225 85.5635 265.444C85.2847 265.655 85.0943 265.941 84.9921 266.304C84.89 266.666 84.9125 267.122 85.0597 267.672L85.909 270.841L84.844 271.127ZM89.4499 269.893L87.0039 260.764L88.0689 260.479L89.5399 265.968L91.4037 262.629L92.7096 262.279L90.6813 265.866L94.7496 268.473L93.393 268.836L89.6418 266.349L90.5149 269.607L89.4499 269.893Z" fill="#3C409E"/>
<rect x="4.22402" y="268.595" width="110.951" height="37.3273" transform="rotate(-15 4.22402 268.595)" stroke="#688EF1" stroke-width="1.64073"/>
<rect x="0.592809" y="266.007" width="5.67431" height="5.67431" transform="rotate(-15 0.592809 266.007)" fill="white" stroke="#688EF1" stroke-width="0.820367"/>
<rect x="107.674" y="236.955" width="5.67431" height="5.67431" transform="rotate(-15 107.674 236.955)" fill="white" stroke="#688EF1" stroke-width="0.820367"/>
<rect x="10.6777" y="303.647" width="5.67431" height="5.67431" transform="rotate(-15 10.6777 303.647)" fill="white" stroke="#688EF1" stroke-width="0.820367"/>
<rect x="117.76" y="274.596" width="5.67431" height="5.67431" transform="rotate(-15 117.76 274.596)" fill="white" stroke="#688EF1" stroke-width="0.820367"/>
<rect x="63.8942" y="289.163" width="5.67431" height="5.67431" transform="rotate(-15 63.8942 289.163)" fill="white" stroke="#688EF1" stroke-width="0.820367"/>
<rect x="53.8087" y="251.522" width="5.67431" height="5.67431" transform="rotate(-15 53.8087 251.522)" fill="white" stroke="#688EF1" stroke-width="0.820367"/>
<g clip-path="url(#clip0_71:7113)">
<path d="M262.702 235.828L226.104 356.927C225.437 359.135 226.685 361.465 228.893 362.132L371.235 405.15C373.443 405.817 375.773 404.569 376.44 402.361L413.038 281.262L334.062 254.093L262.702 235.828Z" fill="#DCE6FF"/>
<path d="M413.061 281.185L262.725 235.752L269.121 214.586C269.788 212.378 272.119 211.129 274.326 211.796L416.668 254.814C418.876 255.481 420.124 257.812 419.457 260.019L413.061 281.185Z" fill="#3C409E"/>
<path d="M403.962 278.519L367.365 399.618C366.697 401.826 364.367 403.075 362.16 402.408L371.234 405.15C373.442 405.817 375.772 404.568 376.439 402.361L413.037 281.262L409.414 276.866L403.962 278.519Z" fill="#BED0FC"/>
<path d="M416.668 254.814L407.594 252.072C409.801 252.739 411.05 255.069 410.383 257.277L403.986 278.443L413.06 281.186L419.457 260.019C420.124 257.812 418.876 255.481 416.668 254.814V254.814Z" fill="#494EC8"/>
<path d="M336.396 394.622L347.466 357.995C347.834 356.775 349.122 356.085 350.341 356.454L386.968 367.523L336.396 394.622Z" fill="#B0C6FF"/>
<path d="M375.151 373.855L386.968 367.523L377.893 364.781L375.151 373.855Z" fill="#688EF1"/>
<rect x="271.618" y="262.83" width="124.826" height="11.4424" rx="4.9222" transform="rotate(16.8156 271.618 262.83)" fill="#97B1F5"/>
<rect x="265.299" y="283.74" width="124.826" height="11.4424" rx="4.9222" transform="rotate(16.8156 265.299 283.74)" fill="#97B1F5"/>
</g>
<g filter="url(#filter0_d_71:7113)">
<path d="M464.885 196.872L453.465 169.762L480.497 181.078L469.995 185.948L464.885 196.872Z" fill="#688EF1"/>
<path d="M451.869 168.118C452.027 167.96 452.229 167.854 452.449 167.813C452.669 167.772 452.896 167.799 453.1 167.89L481.243 180.398C481.439 180.486 481.606 180.629 481.723 180.81C481.84 180.991 481.901 181.202 481.899 181.417C481.898 181.632 481.833 181.843 481.714 182.022C481.594 182.201 481.425 182.341 481.227 182.426L470.689 186.939L466.174 197.479C466.089 197.676 465.949 197.844 465.77 197.963C465.591 198.082 465.381 198.146 465.166 198.147C464.951 198.149 464.74 198.087 464.56 197.971C464.379 197.855 464.236 197.688 464.149 197.492L451.641 169.35C451.55 169.146 451.524 168.919 451.564 168.7C451.605 168.48 451.711 168.278 451.869 168.12L451.869 168.118ZM465.139 194.279L468.832 185.663C468.944 185.402 469.152 185.195 469.413 185.083L478.03 181.391L454.827 171.079L465.139 194.279Z" fill="white"/>
<path d="M451.869 168.118C452.027 167.96 452.229 167.854 452.449 167.813C452.669 167.772 452.896 167.799 453.1 167.89L481.243 180.398C481.439 180.486 481.606 180.629 481.723 180.81C481.84 180.991 481.901 181.202 481.899 181.417C481.898 181.632 481.833 181.843 481.714 182.022C481.594 182.201 481.425 182.341 481.227 182.426L470.689 186.939L466.174 197.479C466.089 197.676 465.949 197.844 465.77 197.963C465.591 198.082 465.381 198.146 465.166 198.147C464.951 198.149 464.74 198.087 464.56 197.971C464.379 197.855 464.236 197.688 464.149 197.492L451.641 169.35C451.55 169.146 451.524 168.919 451.564 168.7C451.605 168.48 451.711 168.278 451.869 168.12L451.869 168.118ZM465.139 194.279L468.832 185.663C468.944 185.402 469.152 185.195 469.413 185.083L478.03 181.391L454.827 171.079L465.139 194.279Z" stroke="white"/>
</g>
<path d="M360.845 44.8352C394.383 59.5494 331.32 120.388 360.133 139.539C379.545 152.441 392.267 118.721 412.193 122.985C433.542 127.554 418.415 180.079 434.457 183.157C447.042 185.573 450.505 171.984 450.781 168.43" stroke="#3C409E" stroke-width="1.64073" stroke-linecap="round"/>
<rect x="478.618" y="195.687" width="100.085" height="31.9943" rx="8.20367" fill="#688EF1"/>
<path d="M499.355 216.25V205.913H501.201L504.701 212.795L508.186 205.913H510.032V216.25H508.466V208.616L505.306 214.773H504.096L500.921 208.63V216.25H499.355ZM514.554 216.427C513.934 216.427 513.422 216.324 513.018 216.117C512.614 215.91 512.314 215.64 512.117 215.305C511.92 214.96 511.822 214.586 511.822 214.183C511.822 213.474 512.098 212.913 512.649 212.499C513.2 212.086 513.988 211.879 515.012 211.879H516.931V211.746C516.931 211.175 516.774 210.747 516.459 210.461C516.154 210.176 515.755 210.033 515.263 210.033C514.829 210.033 514.45 210.142 514.126 210.358C513.811 210.565 513.619 210.875 513.55 211.288H511.984C512.034 210.757 512.211 210.304 512.516 209.93C512.831 209.546 513.225 209.256 513.697 209.059C514.18 208.852 514.706 208.749 515.277 208.749C516.301 208.749 517.094 209.019 517.655 209.561C518.216 210.092 518.496 210.821 518.496 211.746V216.25H517.138L517.005 214.995C516.798 215.398 516.498 215.738 516.104 216.014C515.711 216.289 515.194 216.427 514.554 216.427ZM514.864 215.157C515.287 215.157 515.642 215.059 515.927 214.862C516.222 214.655 516.449 214.384 516.606 214.05C516.774 213.715 516.877 213.346 516.916 212.942H515.174C514.554 212.942 514.111 213.051 513.845 213.267C513.589 213.484 513.461 213.754 513.461 214.079C513.461 214.414 513.584 214.68 513.83 214.877C514.086 215.064 514.431 215.157 514.864 215.157ZM520.322 216.25V208.926H521.71L521.828 210.21C522.054 209.758 522.384 209.403 522.817 209.147C523.26 208.881 523.767 208.749 524.338 208.749C525.224 208.749 525.918 209.024 526.42 209.575C526.932 210.127 527.188 210.949 527.188 212.042V216.25H525.638V212.204C525.638 210.786 525.057 210.078 523.895 210.078C523.314 210.078 522.832 210.284 522.448 210.698C522.074 211.111 521.887 211.702 521.887 212.47V216.25H520.322ZM531.512 216.427C530.892 216.427 530.38 216.324 529.977 216.117C529.573 215.91 529.273 215.64 529.076 215.305C528.879 214.96 528.78 214.586 528.78 214.183C528.78 213.474 529.056 212.913 529.607 212.499C530.159 212.086 530.946 211.879 531.97 211.879H533.89V211.746C533.89 211.175 533.732 210.747 533.417 210.461C533.112 210.176 532.713 210.033 532.221 210.033C531.788 210.033 531.409 210.142 531.084 210.358C530.769 210.565 530.577 210.875 530.508 211.288H528.943C528.992 210.757 529.169 210.304 529.475 209.93C529.79 209.546 530.183 209.256 530.656 209.059C531.138 208.852 531.665 208.749 532.236 208.749C533.26 208.749 534.052 209.019 534.613 209.561C535.174 210.092 535.455 210.821 535.455 211.746V216.25H534.096L533.964 214.995C533.757 215.398 533.457 215.738 533.063 216.014C532.669 216.289 532.152 216.427 531.512 216.427ZM531.822 215.157C532.246 215.157 532.6 215.059 532.886 214.862C533.181 214.655 533.407 214.384 533.565 214.05C533.732 213.715 533.836 213.346 533.875 212.942H532.133C531.512 212.942 531.069 213.051 530.804 213.267C530.548 213.484 530.42 213.754 530.42 214.079C530.42 214.414 530.543 214.68 530.789 214.877C531.045 215.064 531.389 215.157 531.822 215.157ZM540.278 214.005C539.894 214.005 539.539 213.961 539.214 213.873L538.58 214.493C538.688 214.562 538.821 214.621 538.978 214.67C539.136 214.719 539.357 214.763 539.643 214.803C539.928 214.842 540.317 214.882 540.809 214.921C541.784 215.01 542.488 215.246 542.921 215.63C543.354 216.004 543.571 216.506 543.571 217.136C543.571 217.569 543.452 217.978 543.216 218.362C542.99 218.755 542.63 219.07 542.138 219.307C541.656 219.553 541.036 219.676 540.278 219.676C539.254 219.676 538.422 219.479 537.782 219.085C537.152 218.701 536.837 218.116 536.837 217.328C536.837 217.023 536.916 216.718 537.073 216.412C537.241 216.117 537.502 215.837 537.856 215.571C537.649 215.482 537.467 215.389 537.31 215.29C537.162 215.182 537.029 215.074 536.911 214.965V214.611L538.181 213.311C537.61 212.819 537.324 212.174 537.324 211.377C537.324 210.895 537.438 210.457 537.664 210.063C537.9 209.659 538.24 209.339 538.683 209.103C539.126 208.867 539.657 208.749 540.278 208.749C540.691 208.749 541.075 208.808 541.429 208.926H544.161V209.959L542.862 210.033C543.098 210.437 543.216 210.885 543.216 211.377C543.216 211.869 543.098 212.312 542.862 212.706C542.635 213.1 542.301 213.415 541.858 213.651C541.425 213.887 540.898 214.005 540.278 214.005ZM540.278 212.78C540.731 212.78 541.095 212.662 541.37 212.425C541.656 212.179 541.799 211.835 541.799 211.392C541.799 210.939 541.656 210.594 541.37 210.358C541.095 210.122 540.731 210.004 540.278 210.004C539.815 210.004 539.441 210.122 539.155 210.358C538.88 210.594 538.742 210.939 538.742 211.392C538.742 211.835 538.88 212.179 539.155 212.425C539.441 212.662 539.815 212.78 540.278 212.78ZM538.314 217.18C538.314 217.604 538.501 217.919 538.875 218.125C539.249 218.342 539.717 218.45 540.278 218.45C540.819 218.45 541.257 218.332 541.592 218.096C541.927 217.869 542.094 217.564 542.094 217.18C542.094 216.895 541.981 216.649 541.754 216.442C541.528 216.245 541.1 216.122 540.47 216.073C539.997 216.043 539.579 215.999 539.214 215.94C538.87 216.127 538.634 216.329 538.506 216.545C538.378 216.762 538.314 216.974 538.314 217.18ZM548.695 216.427C547.976 216.427 547.336 216.27 546.775 215.955C546.224 215.63 545.791 215.182 545.476 214.611C545.161 214.04 545.003 213.375 545.003 212.617C545.003 211.85 545.156 211.175 545.461 210.594C545.776 210.014 546.209 209.561 546.76 209.236C547.322 208.911 547.971 208.749 548.71 208.749C549.428 208.749 550.053 208.911 550.585 209.236C551.117 209.551 551.53 209.974 551.825 210.506C552.121 211.037 552.268 211.623 552.268 212.263C552.268 212.361 552.263 212.47 552.254 212.588C552.254 212.696 552.249 212.819 552.239 212.957H546.539C546.588 213.666 546.82 214.207 547.233 214.581C547.656 214.946 548.144 215.128 548.695 215.128C549.138 215.128 549.507 215.029 549.802 214.832C550.108 214.626 550.334 214.35 550.482 214.005H552.047C551.85 214.695 551.456 215.27 550.866 215.733C550.285 216.196 549.561 216.427 548.695 216.427ZM548.695 210.033C548.173 210.033 547.71 210.191 547.307 210.506C546.903 210.811 546.657 211.274 546.568 211.894H550.703C550.674 211.323 550.472 210.87 550.098 210.535C549.724 210.201 549.256 210.033 548.695 210.033ZM553.892 216.25V208.926H555.295L555.428 210.314C555.684 209.831 556.039 209.452 556.491 209.177C556.954 208.891 557.51 208.749 558.16 208.749V210.388H557.732C557.299 210.388 556.91 210.461 556.565 210.609C556.231 210.747 555.96 210.988 555.753 211.333C555.556 211.667 555.458 212.135 555.458 212.736V216.25H553.892Z" fill="white"/>
<g clip-path="url(#clip1_71:7113)">
<path d="M160.619 349.655L183.79 430.441C184.212 431.913 185.748 432.765 187.221 432.342L282.178 405.107C283.65 404.685 284.502 403.149 284.079 401.676L260.908 320.891L207.035 334.158L160.619 349.655Z" fill="#FFE6C9"/>
<path d="M260.894 320.84L160.605 349.605L156.555 335.485C156.132 334.012 156.984 332.476 158.456 332.053L253.413 304.818C254.886 304.396 256.422 305.247 256.844 306.72L260.894 320.84Z" fill="#FF9459"/>
<path d="M254.854 322.627L278.025 403.412C278.448 404.885 277.596 406.421 276.123 406.844L282.177 405.107C283.65 404.685 284.501 403.149 284.079 401.676L260.908 320.891L257.303 319.741L254.854 322.627Z" fill="#FED2B9"/>
<path d="M253.412 304.818L247.359 306.554C248.831 306.132 250.368 306.983 250.79 308.456L254.84 322.576L260.894 320.84L256.844 306.72C256.421 305.247 254.885 304.396 253.412 304.818V304.818Z" fill="#F19968"/>
<path d="M258.937 411.773L251.929 387.339C251.695 386.526 252.166 385.677 252.98 385.443L277.413 378.435L258.937 411.773Z" fill="#FFB58C"/>
<path d="M273.096 386.226L277.413 378.436L271.359 380.172L273.096 386.226Z" fill="#F19968"/>
<rect x="178.701" y="360.463" width="76.5962" height="7.92375" rx="3.96187" transform="rotate(-16.0039 178.701 360.463)" fill="#FFB58C"/>
<rect x="183.07" y="375.696" width="76.5962" height="7.92375" rx="3.96187" transform="rotate(-16.0039 183.07 375.696)" fill="#FFB58C"/>
</g>
<g filter="url(#filter1_d_71:7113)">
<path d="M169.209 31.0773L157.789 3.96736L184.821 15.2831L174.318 20.1541L169.209 31.0773Z" fill="#FF9459"/>
<path d="M156.193 2.32355C156.351 2.1655 156.553 2.05913 156.773 2.01847C156.993 1.97781 157.22 2.00478 157.424 2.09582L185.566 14.6037C185.763 14.6911 185.93 14.8341 186.047 15.0151C186.164 15.1961 186.225 15.4072 186.223 15.6226C186.222 15.8379 186.157 16.0481 186.038 16.2273C185.918 16.4065 185.749 16.5469 185.551 16.6313L175.013 21.144L170.498 31.6841C170.413 31.8815 170.273 32.0499 170.093 32.1686C169.914 32.2874 169.705 32.3514 169.49 32.3528C169.275 32.3542 169.064 32.293 168.884 32.1766C168.703 32.0602 168.56 31.8937 168.473 31.6974L155.965 3.55511C155.874 3.35115 155.848 3.12457 155.888 2.90515C155.929 2.68573 156.035 2.48375 156.193 2.32576L156.193 2.32355ZM169.463 28.4847L173.156 19.8683C173.268 19.6077 173.476 19.4003 173.737 19.289L182.354 15.5965L159.151 5.28415L169.463 28.4847Z" fill="white"/>
<path d="M156.193 2.32355C156.351 2.1655 156.553 2.05913 156.773 2.01847C156.993 1.97781 157.22 2.00478 157.424 2.09582L185.566 14.6037C185.763 14.6911 185.93 14.8341 186.047 15.0151C186.164 15.1961 186.225 15.4072 186.223 15.6226C186.222 15.8379 186.157 16.0481 186.038 16.2273C185.918 16.4065 185.749 16.5469 185.551 16.6313L175.013 21.144L170.498 31.6841C170.413 31.8815 170.273 32.0499 170.093 32.1686C169.914 32.2874 169.705 32.3514 169.49 32.3528C169.275 32.3542 169.064 32.293 168.884 32.1766C168.703 32.0602 168.56 31.8937 168.473 31.6974L155.965 3.55511C155.874 3.35115 155.848 3.12457 155.888 2.90515C155.929 2.68573 156.035 2.48375 156.193 2.32576L156.193 2.32355ZM169.463 28.4847L173.156 19.8683C173.268 19.6077 173.476 19.4003 173.737 19.289L182.354 15.5965L159.151 5.28415L169.463 28.4847Z" stroke="white"/>
</g>
<rect x="186.223" y="28.2517" width="108.288" height="31.9943" rx="8.20367" fill="#FF9459"/>
<path d="M206.961 48.8147V38.4781H213.532V39.748H208.526V42.9671H213.089V44.2075H208.526V47.5448H213.532V48.8147H206.961ZM215.337 48.8147V41.4905H216.726L216.858 42.5241C217.095 42.15 217.405 41.8547 217.789 41.6381C218.183 41.4216 218.635 41.3133 219.147 41.3133C220.309 41.3133 221.116 41.771 221.569 42.6866C221.835 42.2632 222.189 41.9285 222.632 41.6824C223.085 41.4363 223.572 41.3133 224.094 41.3133C225.01 41.3133 225.728 41.5889 226.25 42.1402C226.772 42.6915 227.033 43.5135 227.033 44.6062V48.8147H225.467V44.7686C225.467 43.3511 224.926 42.6423 223.843 42.6423C223.292 42.6423 222.839 42.849 222.485 43.2625C222.14 43.6759 221.968 44.2666 221.968 45.0344V48.8147H220.402V44.7686C220.402 43.3511 219.856 42.6423 218.763 42.6423C218.222 42.6423 217.774 42.849 217.42 43.2625C217.075 43.6759 216.903 44.2666 216.903 45.0344V48.8147H215.337ZM228.864 52.0633V41.4905H230.267L230.429 42.6275C230.665 42.2829 230.99 41.9778 231.404 41.712C231.817 41.4462 232.349 41.3133 232.999 41.3133C233.707 41.3133 234.332 41.4806 234.874 41.8153C235.415 42.15 235.839 42.6078 236.144 43.1886C236.459 43.7694 236.616 44.429 236.616 45.1673C236.616 45.9057 236.459 46.5653 236.144 47.1461C235.839 47.717 235.415 48.1699 234.874 48.5046C234.332 48.8295 233.702 48.9919 232.984 48.9919C232.413 48.9919 231.906 48.8787 231.463 48.6523C231.03 48.4258 230.685 48.1059 230.429 47.6924V52.0633H228.864ZM232.718 47.6334C233.387 47.6334 233.939 47.4069 234.372 46.9541C234.805 46.4914 235.022 45.8909 235.022 45.1526C235.022 44.6702 234.923 44.242 234.726 43.8679C234.529 43.4938 234.259 43.2034 233.914 42.9967C233.57 42.7801 233.171 42.6718 232.718 42.6718C232.049 42.6718 231.497 42.9031 231.064 43.3658C230.641 43.8285 230.429 44.4241 230.429 45.1526C230.429 45.8909 230.641 46.4914 231.064 46.9541C231.497 47.4069 232.049 47.6334 232.718 47.6334ZM238.309 48.8147V38.1827H239.875V48.8147H238.309ZM245.283 48.9919C244.584 48.9919 243.954 48.8344 243.393 48.5194C242.841 48.1945 242.403 47.7466 242.078 47.1756C241.753 46.5948 241.591 45.9204 241.591 45.1526C241.591 44.3847 241.753 43.7153 242.078 43.1443C242.413 42.5635 242.861 42.1156 243.422 41.8006C243.983 41.4757 244.608 41.3133 245.297 41.3133C245.996 41.3133 246.622 41.4757 247.173 41.8006C247.734 42.1156 248.177 42.5635 248.502 43.1443C248.836 43.7153 249.004 44.3847 249.004 45.1526C249.004 45.9204 248.836 46.5948 248.502 47.1756C248.177 47.7466 247.734 48.1945 247.173 48.5194C246.612 48.8344 245.982 48.9919 245.283 48.9919ZM245.283 47.6481C245.657 47.6481 246.001 47.5546 246.316 47.3676C246.641 47.1805 246.902 46.9049 247.099 46.5406C247.296 46.1666 247.394 45.7039 247.394 45.1526C247.394 44.6013 247.296 44.1435 247.099 43.7793C246.912 43.4052 246.656 43.1246 246.331 42.9376C246.016 42.7505 245.672 42.657 245.297 42.657C244.923 42.657 244.574 42.7505 244.249 42.9376C243.934 43.1246 243.678 43.4052 243.481 43.7793C243.284 44.1435 243.186 44.6013 243.186 45.1526C243.186 45.7039 243.284 46.1666 243.481 46.5406C243.678 46.9049 243.934 47.1805 244.249 47.3676C244.564 47.5546 244.909 47.6481 245.283 47.6481ZM250.933 52.0633L252.69 48.2093H252.262L249.368 41.4905H251.066L253.31 46.9098L255.658 41.4905H257.312L252.587 52.0633H250.933ZM261.362 48.9919C260.643 48.9919 260.003 48.8344 259.442 48.5194C258.891 48.1945 258.457 47.7466 258.142 47.1756C257.827 46.6046 257.67 45.9401 257.67 45.1821C257.67 44.4143 257.822 43.7399 258.128 43.1591C258.443 42.5783 258.876 42.1254 259.427 41.8006C259.988 41.4757 260.638 41.3133 261.376 41.3133C262.095 41.3133 262.72 41.4757 263.252 41.8006C263.783 42.1156 264.197 42.5389 264.492 43.0705C264.787 43.6021 264.935 44.1878 264.935 44.8277C264.935 44.9262 264.93 45.0344 264.92 45.1526C264.92 45.2609 264.915 45.3839 264.906 45.5217H259.206C259.255 46.2305 259.486 46.772 259.9 47.1461C260.323 47.5103 260.81 47.6924 261.362 47.6924C261.805 47.6924 262.174 47.594 262.469 47.3971C262.774 47.1904 263.001 46.9147 263.148 46.5702H264.714C264.517 47.2593 264.123 47.8352 263.532 48.2979C262.951 48.7606 262.228 48.9919 261.362 48.9919ZM261.362 42.598C260.84 42.598 260.377 42.7555 259.973 43.0705C259.57 43.3757 259.324 43.8384 259.235 44.4585H263.37C263.34 43.8876 263.138 43.4347 262.764 43.1C262.39 42.7653 261.923 42.598 261.362 42.598ZM269.985 48.9919C269.266 48.9919 268.626 48.8344 268.065 48.5194C267.514 48.1945 267.081 47.7466 266.766 47.1756C266.451 46.6046 266.293 45.9401 266.293 45.1821C266.293 44.4143 266.446 43.7399 266.751 43.1591C267.066 42.5783 267.499 42.1254 268.051 41.8006C268.612 41.4757 269.261 41.3133 270 41.3133C270.718 41.3133 271.344 41.4757 271.875 41.8006C272.407 42.1156 272.82 42.5389 273.116 43.0705C273.411 43.6021 273.559 44.1878 273.559 44.8277C273.559 44.9262 273.554 45.0344 273.544 45.1526C273.544 45.2609 273.539 45.3839 273.529 45.5217H267.829C267.878 46.2305 268.11 46.772 268.523 47.1461C268.946 47.5103 269.434 47.6924 269.985 47.6924C270.428 47.6924 270.797 47.594 271.092 47.3971C271.398 47.1904 271.624 46.9147 271.772 46.5702H273.337C273.14 47.2593 272.746 47.8352 272.156 48.2979C271.575 48.7606 270.851 48.9919 269.985 48.9919ZM269.985 42.598C269.463 42.598 269.001 42.7555 268.597 43.0705C268.193 43.3757 267.947 43.8384 267.859 44.4585H271.993C271.964 43.8876 271.762 43.4347 271.388 43.1C271.014 42.7653 270.546 42.598 269.985 42.598Z" fill="white"/>
<g opacity="0.6">
<path d="M121.171 174.466L165.19 170.854C171.516 170.335 176.222 164.782 175.696 158.457L174.135 139.661C173.61 133.339 178.309 127.789 184.63 127.264L203.676 125.682" stroke="#A7A7A7" stroke-width="1.64073" stroke-linecap="round"/>
<rect x="116.918" y="172.634" width="4.40992" height="4.40992" transform="rotate(-4.74866 116.918 172.634)" fill="white" stroke="#A7A7A7" stroke-width="0.820367"/>
<rect x="200.775" y="123.711" width="4.40992" height="4.40992" transform="rotate(-4.74866 200.775 123.711)" fill="white" stroke="#A7A7A7" stroke-width="0.820367"/>
</g>
<g clip-path="url(#clip2_71:7113)">
<path d="M218.174 110.4L266.179 106.461L268.375 133.225C268.41 133.65 268.275 134.072 267.998 134.398C267.722 134.723 267.328 134.926 266.903 134.96L222.105 138.636C221.68 138.671 221.258 138.536 220.933 138.26C220.607 137.984 220.405 137.59 220.37 137.164L218.174 110.4Z" fill="url(#paint0_linear_71:7113)"/>
<path d="M218.947 100.039L263.727 96.3647C264.153 96.3298 264.574 96.4654 264.9 96.7415C265.225 97.0176 265.428 97.4117 265.463 97.8371L266.17 106.461L218.174 110.4L217.466 101.776C217.449 101.564 217.473 101.352 217.538 101.15C217.603 100.948 217.708 100.761 217.845 100.6C217.983 100.438 218.151 100.306 218.34 100.21C218.529 100.113 218.735 100.056 218.947 100.039Z" fill="#3C409E"/>
<path d="M258.33 99.8836L224.845 102.631C224.402 102.668 224.073 103.056 224.109 103.499L224.316 106.015C224.352 106.458 224.74 106.788 225.183 106.751L258.668 104.004C259.111 103.967 259.441 103.579 259.405 103.136L259.198 100.62C259.162 100.177 258.773 99.8473 258.33 99.8836Z" fill="#F2F2F2"/>
</g>
<g clip-path="url(#clip3_71:7113)">
<path d="M494.568 23.9677L503.333 24.6586L503.133 27.1944L494.369 26.5035L494.568 23.9677ZM558.92 31.592L560.344 31.7042L560.235 33.0834L562.682 33.2762L562.99 29.3613L559.12 29.0562L558.92 31.592ZM485.662 96.634L484.416 96.5358L484.529 95.1122L481.726 94.8913L481.4 99.0286L485.448 99.3477L485.662 96.634ZM554.898 100.794L554.796 102.084L553.372 101.971L553.158 104.685L557.029 104.99L557.344 100.986L554.898 100.794ZM489.863 27.4465L489.964 26.1564L491.21 26.2545L491.41 23.7188L487.361 23.3996L487.06 27.2256L489.863 27.4465Z" fill="#B0C6FF"/>
<path d="M536.875 40.9559L500.351 38.0768C499.638 38.0206 499.015 38.5527 498.959 39.2652L497.1 62.8437C497.044 63.5562 497.576 64.1793 498.288 64.2355L534.813 67.1147C535.525 67.1708 536.148 66.6387 536.205 65.9262L538.063 42.3478C538.119 41.6352 537.587 41.0121 536.875 40.9559Z" fill="url(#paint1_linear_71:7113)"/>
<path d="M524.397 49.3275L523.797 56.9349L517 60.2488L517.604 52.5969L524.397 49.3275Z" fill="#50E6FF"/>
<path d="M524.396 49.3279L517.599 52.6419L511.361 48.3004L518.202 44.99L524.396 49.3279Z" fill="#C3F1FF"/>
<path d="M517.599 52.6414L517 60.2488L510.762 55.9073L511.361 48.2999L517.599 52.6414Z" fill="#9CEBFF"/>
<path d="M547.025 56.4388L510.5 53.5597C509.788 53.5035 509.165 54.0356 509.108 54.7481L507.25 78.3266C507.194 79.0391 507.726 79.6622 508.438 79.7184L544.963 82.5975C545.675 82.6537 546.298 82.1216 546.354 81.4091L548.213 57.8307C548.269 57.1181 547.737 56.495 547.025 56.4388Z" fill="url(#paint2_linear_71:7113)"/>
<path d="M534.55 64.7658L533.95 72.3732L527.154 75.6871L527.753 68.0797L534.55 64.7658Z" fill="#50E6FF"/>
<path d="M534.549 64.7662L527.752 68.0802L521.514 63.7387L528.356 60.4283L534.549 64.7662Z" fill="#C3F1FF"/>
<path d="M527.753 68.0797L527.153 75.6871L520.915 71.3456L521.514 63.7382L527.753 68.0797Z" fill="#9CEBFF"/>
<path d="M520.915 71.346L527.753 68.08L527.153 75.6874L520.915 71.346Z" fill="#C3F1FF"/>
<path d="M533.95 72.3736L527.753 68.0801L527.153 75.6875L533.95 72.3736Z" fill="#9CEBFF"/>
<path d="M533.931 89.6507C530.109 88.7228 530.197 85.9096 530.551 81.4163L522.855 80.8096C522.504 85.2584 522.28 88.1056 518.227 88.4128C517.697 88.4544 517.198 88.6801 516.818 89.0507C516.437 89.4213 516.198 89.9135 516.142 90.4419L535.716 91.9849C535.743 91.4476 535.578 90.9183 535.251 90.491C534.924 90.0637 534.456 89.766 533.931 89.6507Z" fill="url(#paint3_linear_71:7113)"/>
<path d="M507.692 25.0023L516.456 25.6931L516.256 28.2289L507.492 27.5381L507.692 25.0023ZM520.772 26.0333L529.536 26.7242L529.336 29.2599L520.572 28.5691L520.772 26.0333ZM533.896 27.0678L542.66 27.7587L542.46 30.2945L533.696 29.6036L533.896 27.0678ZM547.019 28.1024L555.783 28.7932L555.584 31.329L546.819 30.6382L547.019 28.1024ZM488.91 96.89L497.674 97.5808L497.474 100.117L488.71 99.4258L488.91 96.89ZM501.989 97.921L510.753 98.6119L510.553 101.148L501.789 100.457L501.989 97.921ZM515.113 98.9555L523.877 99.6464L523.677 102.182L514.913 101.491L515.113 98.9555ZM528.237 99.9901L537.001 100.681L536.801 103.217L528.037 102.526L528.237 99.9901ZM541.316 101.021L550.08 101.712L549.88 104.248L541.116 103.557L541.316 101.021ZM559.911 36.057L562.447 36.2569L561.756 45.021L559.22 44.8211L559.911 36.057ZM558.88 49.1364L561.416 49.3363L560.725 58.1003L558.189 57.9004L558.88 49.1364ZM557.846 62.2602L560.381 62.4601L559.69 71.2242L557.155 71.0243L557.846 62.2602ZM556.815 75.3396L559.35 75.5395L558.659 84.3036L556.124 84.1037L556.815 75.3396ZM555.78 88.4635L558.316 88.6633L557.625 97.4274L555.089 97.2275L555.78 88.4635ZM486.825 30.2062L489.361 30.4061L488.67 39.1702L486.134 38.9703L486.825 30.2062ZM485.79 43.3301L488.326 43.53L487.635 52.294L485.1 52.0942L485.79 43.3301ZM484.759 56.4095L487.295 56.6093L486.604 65.3734L484.068 65.1735L484.759 56.4095ZM483.725 69.5333L486.261 69.7332L485.57 78.4973L483.034 78.2974L483.725 69.5333ZM482.694 82.6127L485.23 82.8126L484.539 91.5766L482.003 91.3767L482.694 82.6127Z" fill="#B0C6FF"/>
</g>
<g clip-path="url(#clip4_71:7113)">
<path d="M78.33 173.688C67.3633 177.056 57.5024 176.655 56.2514 172.582L68.0007 210.84C69.2131 214.788 78.9367 215.299 89.7973 212.032L90.0793 211.946C101.046 208.578 108.982 202.712 107.732 198.638L95.9823 160.38C97.2043 164.36 89.2968 170.32 78.33 173.688Z" fill="url(#paint4_linear_71:7113)"/>
<path d="M95.9822 160.38C97.2043 164.36 89.2968 170.32 78.33 173.688C67.3633 177.056 57.4735 176.561 56.2514 172.582C55.0293 168.602 62.9369 162.642 73.9036 159.274C84.8703 155.906 94.7313 156.307 95.9822 160.38Z" fill="#E8E8E8"/>
<path d="M91.1621 161.209C91.9415 163.747 85.7363 167.881 77.3389 170.46C68.9415 173.039 61.548 173.081 60.7686 170.543C59.9892 168.005 66.1317 163.89 74.5291 161.311C82.9265 158.732 90.3923 158.702 91.1621 161.209Z" fill="#3C409E"/>
<path d="M76.2612 166.951C72.1584 168.121 68.2734 169.951 64.7584 172.369C69.0419 172.467 73.3097 171.818 77.3703 170.451C81.4984 169.303 85.395 167.445 88.8852 164.96C84.5968 164.931 80.3325 165.604 76.2612 166.951Z" fill="#90ACF8"/>
<path d="M96.3335 188.766L93.0811 178.175L90.1671 179.07L94.1508 192.042L101.859 189.675L101.128 187.294L96.3335 188.766ZM72.3231 190.414C71.6698 190.353 71.03 190.191 70.4268 189.933C70.1276 189.709 69.9273 189.377 69.8682 189.007C69.8097 188.817 69.7976 188.616 69.833 188.42C69.8683 188.224 69.95 188.04 70.0712 187.882C70.388 187.514 70.8106 187.252 71.2814 187.133C72.3841 186.752 73.5797 186.733 74.6938 187.08L73.8663 184.385C72.7511 184.328 71.6353 184.484 70.5789 184.846C69.1984 185.146 67.9785 185.949 67.1557 187.097C66.8468 187.566 66.6486 188.099 66.5761 188.656C66.5035 189.213 66.5586 189.779 66.7371 190.312C67.2278 191.91 68.6154 192.855 71.0348 193.141C71.8066 193.228 72.5649 193.41 73.2925 193.682C73.484 193.751 73.6569 193.864 73.7973 194.011C73.9378 194.158 74.042 194.336 74.1018 194.531C74.1603 194.721 74.1724 194.922 74.137 195.118C74.1017 195.314 74.02 195.498 73.8988 195.656C73.564 196.056 73.1107 196.34 72.6042 196.465C71.2888 196.885 69.861 196.769 68.6305 196.142L69.5254 199.056C70.7242 199.244 71.9506 199.138 73.0994 198.747C74.4247 198.406 75.6099 197.658 76.4889 196.609C76.8251 196.137 77.0426 195.591 77.1231 195.018C77.2035 194.444 77.1444 193.859 76.9509 193.313C76.7342 192.499 76.2125 191.8 75.494 191.36C74.5153 190.825 73.4348 190.503 72.3231 190.414ZM90.1273 190.329C90.465 188.907 90.3998 187.419 89.9392 186.032C89.5984 184.828 88.9657 183.727 88.0974 182.826C87.3077 181.998 86.2954 181.416 85.1823 181.15C84.061 180.902 82.8942 180.953 81.7988 181.297C80.5995 181.643 79.5116 182.296 78.6433 183.192C77.8378 184.06 77.3007 185.142 77.0969 186.307C76.8736 187.596 76.9739 188.92 77.3888 190.161C77.7211 191.308 78.3258 192.357 79.1512 193.22C79.9236 194.042 80.9122 194.63 82.0036 194.916C83.1258 195.199 84.3032 195.181 85.416 194.862L89.0416 197.178L92.7703 196.032L87.9421 193.709C89.0421 192.872 89.815 191.676 90.1273 190.329ZM86.9631 190.409C86.7762 190.849 86.4956 191.243 86.1407 191.563C85.7858 191.882 85.3653 192.121 84.9086 192.261C84.4519 192.401 83.9701 192.44 83.4969 192.374C83.0236 192.309 82.5705 192.141 82.1691 191.882C81.2365 191.175 80.5848 190.16 80.3294 189.018C79.8989 187.924 79.8798 186.712 80.2759 185.605C80.4411 185.141 80.7179 184.723 81.0819 184.39C81.4459 184.057 81.8861 183.819 82.3638 183.696C82.8162 183.541 83.2996 183.5 83.7715 183.577C84.2433 183.653 84.6892 183.844 85.0699 184.133C85.9709 184.867 86.6061 185.877 86.8781 187.007C87.3561 188.116 87.3967 189.365 86.9919 190.503L86.9631 190.409Z" fill="#F2F2F2"/>
<path d="M115.235 204.872L115.227 202.165L116.44 200.867L119.324 201.216L120.444 199.055L120.386 198.867L118.543 196.998L118.752 195.22L121.01 193.532L121.292 193.445L120.59 191.158L120.277 191.254L117.539 191.272L116.282 190.081L116.589 187.174L114.438 186.086L114.25 186.144L112.372 187.955L110.548 187.487L108.689 185.006L106.37 185.718L106.476 186.063L106.484 188.769L105.098 189.949L101.987 189.533L100.899 191.684L101.152 191.95L103.054 193.903L102.918 195.693L100.252 197.506L100.964 199.825L101.309 199.719L104.015 199.711L105.195 201.097L104.801 204.167L106.962 205.287L107.196 205.043L109.149 203.141L110.939 203.277L112.861 205.738L115.148 205.036L115.235 204.872ZM109.204 198.632C108.382 198.207 107.763 197.472 107.483 196.591C107.203 195.709 107.284 194.752 107.709 193.931C108.134 193.109 108.868 192.49 109.75 192.209C110.632 191.929 111.589 192.01 112.41 192.435C112.817 192.646 113.179 192.934 113.474 193.285C113.769 193.635 113.993 194.04 114.131 194.476C114.27 194.913 114.322 195.372 114.283 195.829C114.244 196.285 114.116 196.73 113.905 197.137C113.695 197.543 113.406 197.905 113.056 198.2C112.706 198.496 112.301 198.719 111.864 198.858C111.428 198.997 110.968 199.048 110.512 199.009C110.055 198.971 109.611 198.842 109.204 198.632Z" fill="#FF9459"/>
</g>
<defs>
<filter id="filter0_d_71:7113" x="449.211" y="166.627" width="35.0234" height="35.0226" filterUnits="userSpaceOnUse" color-interpolation-filters="sRGB">
<feFlood flood-opacity="0" result="BackgroundImageFix"/>
<feColorMatrix in="SourceAlpha" type="matrix" values="0 0 0 0 0 0 0 0 0 0 0 0 0 0 0 0 0 0 127 0" result="hardAlpha"/>
<feOffset dy="1.16744"/>
<feGaussianBlur stdDeviation="1.16744"/>
<feColorMatrix type="matrix" values="0 0 0 0 0 0 0 0 0 0 0 0 0 0 0 0 0 0 0.4 0"/>
<feBlend mode="normal" in2="BackgroundImageFix" result="effect1_dropShadow_71:7113"/>
<feBlend mode="normal" in="SourceGraphic" in2="effect1_dropShadow_71:7113" result="shape"/>
</filter>
<filter id="filter1_d_71:7113" x="153.535" y="0.832593" width="35.0234" height="35.0226" filterUnits="userSpaceOnUse" color-interpolation-filters="sRGB">
<feFlood flood-opacity="0" result="BackgroundImageFix"/>
<feColorMatrix in="SourceAlpha" type="matrix" values="0 0 0 0 0 0 0 0 0 0 0 0 0 0 0 0 0 0 127 0" result="hardAlpha"/>
<feOffset dy="1.16744"/>
<feGaussianBlur stdDeviation="1.16744"/>
<feColorMatrix type="matrix" values="0 0 0 0 0 0 0 0 0 0 0 0 0 0 0 0 0 0 0.4 0"/>
<feBlend mode="normal" in2="BackgroundImageFix" result="effect1_dropShadow_71:7113"/>
<feBlend mode="normal" in="SourceGraphic" in2="effect1_dropShadow_71:7113" result="shape"/>
</filter>
<linearGradient id="paint0_linear_71:7113" x1="248.688" y1="163.43" x2="242.176" y2="108.43" gradientUnits="userSpaceOnUse">
<stop stop-color="#3C409E"/>
<stop offset="0.841522" stop-color="#97B4FF"/>
<stop offset="1" stop-color="#97B4FF"/>
</linearGradient>
<linearGradient id="paint1_linear_71:7113" x1="516.22" y1="90.5103" x2="518.157" y2="39.4991" gradientUnits="userSpaceOnUse">
<stop stop-color="#3C409E"/>
<stop offset="0.841522" stop-color="#97B4FF"/>
<stop offset="1" stop-color="#97B4FF"/>
</linearGradient>
<linearGradient id="paint2_linear_71:7113" x1="526.37" y1="105.993" x2="528.307" y2="54.9819" gradientUnits="userSpaceOnUse">
<stop stop-color="#3C409E"/>
<stop offset="0.841522" stop-color="#97B4FF"/>
<stop offset="1" stop-color="#97B4FF"/>
</linearGradient>
<linearGradient id="paint3_linear_71:7113" x1="525.929" y1="91.2134" x2="526.725" y2="81.1147" gradientUnits="userSpaceOnUse">
<stop offset="0.15" stop-color="#CCCCCC"/>
<stop offset="1" stop-color="#707070"/>
</linearGradient>
<linearGradient id="paint4_linear_71:7113" x1="104.91" y1="254.384" x2="71.7177" y2="168.175" gradientUnits="userSpaceOnUse">
<stop stop-color="#3C409E"/>
<stop offset="0.841522" stop-color="#97B4FF"/>
<stop offset="1" stop-color="#97B4FF"/>
</linearGradient>
<clipPath id="clip0_71:7113">
<rect width="157.051" height="157.051" fill="white" transform="translate(270.329 210.588) rotate(16.8156)"/>
</clipPath>
<clipPath id="clip1_71:7113">
<rect width="104.333" height="104.333" fill="white" transform="translate(155.79 332.818) rotate(-16.0039)"/>
</clipPath>
<clipPath id="clip2_71:7113">
<rect width="51" height="51" fill="white" transform="translate(215.42 94.1711) rotate(-4.69114)"/>
</clipPath>
<clipPath id="clip3_71:7113">
<rect width="80.3262" height="80.3262" fill="white" transform="translate(485.312 21) rotate(4.50721)"/>
</clipPath>
<clipPath id="clip4_71:7113">
<rect width="59" height="59" fill="white" transform="translate(52 164.321) rotate(-17.072)"/>
</clipPath>
</defs>
</svg>
