<svg width="57" height="57" viewBox="0 0 57 57" fill="none" xmlns="http://www.w3.org/2000/svg">
<path d="M49.8747 6.3335L47.05 13.525L44.2254 6.3335H37.6593L34.6098 14.0966L31.5587 6.3335H25.4423L22.3928 14.0966L19.3417 6.3335H12.774L9.94937 13.525L7.1247 6.3335H3.37695L9.2907 50.6874H47.7071L53.6225 6.3335H49.8747ZM40.9415 8.99033L44.835 19.1632L40.7167 29.6465L36.8265 19.7443L40.9415 8.99033V8.99033ZM28.4997 9.57775L32.39 19.7427L28.4997 29.6449L24.6095 19.7427L28.4997 9.57775ZM16.0579 8.99033L20.173 19.7443L16.2827 29.6465L12.1645 19.1632L16.0579 8.99033V8.99033ZM9.4332 26.3009L9.94937 24.9503L13.9853 35.4953L11.4947 41.835L9.4332 26.3009V26.3009ZM12.774 50.6668L16.2827 41.4993L19.7914 50.6668H12.774ZM18.5817 35.4953L22.3928 25.5393L26.2023 35.4953L22.3928 45.1948L18.5817 35.4953V35.4953ZM24.991 50.6668L28.4997 41.4993L32.0084 50.6668H24.991ZM30.7971 35.4953L34.6066 25.5393L38.4161 35.4953L34.6066 45.1948L30.7971 35.4953ZM37.208 50.6668L40.7167 41.4993L44.2254 50.6668H37.208ZM45.7454 42.4462L43.0141 35.4953L47.05 24.9519L47.7008 26.6524L45.7454 42.4462Z" fill="#9AAAB4"/>
<path d="M50.6667 53.8333C50.6667 52.0853 49.248 50.6667 47.5 50.6667H9.5C7.752 50.6667 6.33333 52.0853 6.33333 53.8333C6.33333 55.5813 7.752 57 9.5 57H47.5C49.248 57 50.6667 55.5813 50.6667 53.8333ZM57 3.16667C57 1.41708 55.5813 0 53.8333 0H3.16667C1.41867 0 0 1.41867 0 3.16667C0 4.91625 1.41867 6.33333 3.16667 6.33333H53.8333C55.5813 6.33333 57 4.91625 57 3.16667Z" fill="#67757F"/>
</svg>
